<?xml version="1.0" encoding="UTF-8" standalone="no"?><!-- Generator: Gravit.io --><svg xmlns="http://www.w3.org/2000/svg" xmlns:xlink="http://www.w3.org/1999/xlink" style="isolation:isolate" viewBox="0 0 1190.551 1683.78" width="1190.551pt" height="1683.78pt"><defs><clipPath id="_clipPath_NymJ1OJM6wyaYn3erGYjUfeX0xo77aFb"><rect width="1190.551" height="1683.78"/></clipPath></defs><g clip-path="url(#_clipPath_NymJ1OJM6wyaYn3erGYjUfeX0xo77aFb)"><rect width="1190.551" height="1683.78" style="fill:rgb(103,16,15)"/><g><path d="M 1175.219 845.398 L 1268.869 845.398 C 1297.897 845.398 1321.464 868.965 1321.464 897.992 L 1321.464 968.143 C 1321.464 997.171 1297.897 1020.738 1268.869 1020.738 L 1175.219 1020.738 C 1146.191 1020.738 1122.624 997.171 1122.624 968.143 L 1122.624 897.992 C 1122.624 868.965 1146.191 845.398 1175.219 845.398 Z" style="stroke:none;fill:#EBBF75;stroke-miterlimit:10;"/><path d="M 1175.219 845.398 L 1268.869 845.398 C 1297.897 845.398 1321.464 868.965 1321.464 897.992 L 1321.464 968.143 C 1321.464 997.171 1297.897 1020.738 1268.869 1020.738 L 1175.219 1020.738 C 1146.191 1020.738 1122.624 997.171 1122.624 968.143 L 1122.624 897.992 C 1122.624 868.965 1146.191 845.398 1175.219 845.398 Z" style="fill:none;stroke:#000000;stroke-width:6;stroke-linecap:square;stroke-miterlimit:2;"/><mask id="_mask_76YI9vVoGxTdYnzanzfHZo0z0Se5E9a0"><circle vector-effect="non-scaling-stroke" cx="1222.0435651577316" cy="1606.8088742660534" r="669.7424984039158" fill="white" stroke="none"/></mask><circle vector-effect="non-scaling-stroke" cx="1222.0435651577316" cy="1606.8088742660534" r="669.7424984039158" fill="rgb(66,2,0)"/><circle vector-effect="non-scaling-stroke" cx="1222.0435651577316" cy="1606.8088742660534" r="669.7424984039158" fill="rgb(66,2,0)" mask="url(#_mask_76YI9vVoGxTdYnzanzfHZo0z0Se5E9a0)" stroke-width="6" stroke="rgb(0,0,0)" stroke-linejoin="miter" stroke-linecap="square" stroke-miterlimit="3"/></g><path d="M 92.759 826.421 L 190.399 826.421 C 220.664 826.421 245.235 850.992 245.235 881.257 L 245.235 954.396 C 245.235 984.661 220.664 1009.232 190.399 1009.232 L 92.759 1009.232 C 62.494 1009.232 37.923 984.661 37.923 954.396 L 37.923 881.257 C 37.923 850.992 62.494 826.421 92.759 826.421 Z" style="stroke:none;fill:#EBBF75;stroke-miterlimit:10;"/><path d="M 92.759 826.421 L 190.399 826.421 C 220.664 826.421 245.235 850.992 245.235 881.257 L 245.235 954.396 C 245.235 984.661 220.664 1009.232 190.399 1009.232 L 92.759 1009.232 C 62.494 1009.232 37.923 984.661 37.923 954.396 L 37.923 881.257 C 37.923 850.992 62.494 826.421 92.759 826.421 Z" style="fill:none;stroke:#000000;stroke-width:6;stroke-linecap:square;stroke-miterlimit:2;"/><mask id="_mask_a7phjKFZkOotMtfK0IwuLCbdSB13l5xR"><circle vector-effect="non-scaling-stroke" cx="141.57905937433497" cy="1603.4069429112037" r="669.7424984039158" fill="white" stroke="none"/></mask><circle vector-effect="non-scaling-stroke" cx="141.57905937433497" cy="1603.4069429112037" r="669.7424984039158" fill="rgb(66,2,0)"/><circle vector-effect="non-scaling-stroke" cx="141.57905937433497" cy="1603.4069429112037" r="669.7424984039158" fill="rgb(66,2,0)" mask="url(#_mask_a7phjKFZkOotMtfK0IwuLCbdSB13l5xR)" stroke-width="6" stroke="rgb(0,0,0)" stroke-linejoin="miter" stroke-linecap="square" stroke-miterlimit="3"/><path d=" M 286.731 326.068 L 252.983 318.385 L 227.522 341.829 L 224.401 307.359 L 194.236 290.388 L 226.054 276.768 L 232.873 242.835 L 255.659 268.888 L 290.038 264.886 L 272.302 294.608 L 286.731 326.068 Z " fill="rgb(235,235,235)"/><path d=" M 330.115 117.21 L 298.218 103.774 L 269.067 122.432 L 271.989 87.945 L 245.235 65.986 L 278.938 58.108 L 291.554 25.878 L 309.462 55.497 L 344.013 57.536 L 321.377 83.72 L 330.115 117.21 Z " fill="rgb(235,235,235)"/><path d=" M 747.81 151.39 L 713.866 109.167 L 659.841 113.192 L 689.508 67.862 L 668.985 17.725 L 721.264 31.932 L 762.605 -3.079 L 765.248 51.031 L 811.322 79.53 L 760.676 98.765 L 747.81 151.39 Z " fill="rgb(235,235,235)"/><path d=" M 989.197 686.736 L 965.785 700.761 L 964.066 727.998 L 943.493 710.066 L 917.059 716.848 L 927.755 691.741 L 913.137 668.695 L 940.321 671.11 L 957.72 650.086 L 963.824 676.685 L 989.197 686.736 Z " fill="rgb(235,235,235)"/><path d=" M 845.485 363.522 L 820.399 339.248 L 786.182 346.151 L 801.516 314.793 L 784.376 284.383 L 818.939 289.276 L 842.564 263.579 L 848.59 297.961 L 880.331 312.489 L 849.493 328.845 L 845.485 363.522 Z " fill="rgb(235,235,235)"/><rect x="419.95" y="310.968" width="136.254" height="10.113" transform="matrix(1,0,0,1,0,0)" fill="rgb(66,2,0)"/><rect x="419.95" y="305.912" width="136.254" height="10.113" transform="matrix(0.001,-1,1,0.001,176.495,798.654)" fill="rgb(66,2,0)"/><rect x="419.95" y="310.968" width="136.254" height="10.113" transform="matrix(-0.642,-0.767,0.767,-0.642,558.867,893.155)" fill="rgb(66,2,0)"/><rect x="419.95" y="310.968" width="136.254" height="10.113" transform="matrix(0.696,-0.718,0.718,0.696,-78.517,446.648)" fill="rgb(66,2,0)"/><rect x="921.07" y="174.702" width="136.254" height="10.113" transform="matrix(1,0,0,1,0,0)" fill="rgb(66,2,0)"/><rect x="921.07" y="169.646" width="136.254" height="10.113" transform="matrix(0.001,-1,1,0.001,813.251,1163.678)" fill="rgb(66,2,0)"/><rect x="921.07" y="174.702" width="136.254" height="10.113" transform="matrix(-0.642,-0.767,0.767,-0.642,1486.049,1053.807)" fill="rgb(66,2,0)"/><rect x="921.07" y="174.702" width="136.254" height="10.113" transform="matrix(0.696,-0.718,0.718,0.696,171.762,765.1)" fill="rgb(66,2,0)"/><rect x="141.579" y="667.444" width="136.254" height="10.113" transform="matrix(1,0,0,1,0,0)" fill="rgb(66,2,0)"/><rect x="141.579" y="662.388" width="136.254" height="10.113" transform="matrix(0.001,-1,1,0.001,-458.001,876.311)" fill="rgb(66,2,0)"/><rect x="141.579" y="667.444" width="136.254" height="10.113" transform="matrix(-0.642,-0.767,0.767,-0.642,-171.537,1264.858)" fill="rgb(66,2,0)"/><rect x="141.579" y="667.444" width="136.254" height="10.113" transform="matrix(0.696,-0.718,0.718,0.696,-419.198,355.148)" fill="rgb(66,2,0)"/><rect x="73.452" y="83.729" width="115.69" height="8.587" transform="matrix(1,0,0,1,0,0)" fill="rgb(66,2,0)"/><rect x="73.452" y="79.435" width="115.69" height="8.587" transform="matrix(0.001,-1,1,0.001,47.404,214.921)" fill="rgb(66,2,0)"/><rect x="73.452" y="83.729" width="115.69" height="8.587" transform="matrix(-0.642,-0.767,0.767,-0.642,148.033,245.206)" fill="rgb(66,2,0)"/><rect x="73.452" y="83.729" width="115.69" height="8.587" transform="matrix(0.696,-0.718,0.718,0.696,-23.282,121.068)" fill="rgb(66,2,0)"/><g clip-path="url(#_clipPath_SD04gTgTgR8V63cSvh65RuHVn2sP0asz)"><text transform="matrix(1,0,0,1,251.137,559.581)" style="font-family:'Quando';font-weight:400;font-size:173px;font-style:normal;fill:#ffffff;stroke:#000000;stroke-width:3;">Quebra</text><text transform="matrix(1,0,0,1,308.524,775.831)" style="font-family:'Quando';font-weight:400;font-size:173px;font-style:normal;fill:#ffffff;stroke:#000000;stroke-width:3;">Nozes</text></g><defs><clipPath id="_clipPath_SD04gTgTgR8V63cSvh65RuHVn2sP0asz"><rect x="0" y="0" width="671" height="432.5" transform="matrix(1,0,0,1,242.137,379.101)"/></clipPath></defs><g clip-path="url(#_clipPath_xiCDCy7oTEnyluitAMmTa51JgM0onp1y)"><text transform="matrix(0.565,0,0,0.565,162.593,905.988)" style="font-family:'Sacramento';font-weight:400;font-size:173px;font-style:normal;fill:#ffffff;stroke:#000000;stroke-width:2;">Todas as quintas, sábados de </text><text transform="matrix(0.565,0,0,0.565,158.175,1048.761)" style="font-family:'Sacramento';font-weight:400;font-size:173px;font-style:normal;fill:#ffffff;stroke:#000000;stroke-width:2;">dezembro de 2021 (entre </text><text transform="matrix(0.565,0,0,0.565,158.844,1191.534)" style="font-family:'Sacramento';font-weight:400;font-size:173px;font-style:normal;fill:#ffffff;stroke:#000000;stroke-width:2;">os dias 1 e 23)  no Teatro </text><text transform="matrix(0.565,0,0,0.565,240.762,1334.306)" style="font-family:'Sacramento';font-weight:400;font-size:173px;font-style:normal;fill:#ffffff;stroke:#000000;stroke-width:2;">Guaíra, às 21:30hs</text></g><defs><clipPath id="_clipPath_xiCDCy7oTEnyluitAMmTa51JgM0onp1y"><rect x="0" y="0" width="1605.102" height="1305.454" transform="matrix(0.565,0,0,0.565,125.579,811.601)"/></clipPath></defs><mask id="_mask_vIYJgTbqFmnAwAvXcl0edlIzJ4BXram6" x="-200%" y="-200%" width="400%" height="400%"><rect x="-200%" y="-200%" width="400%" height="400%" style="fill:white;"/><path d=" M 536.323 306.626 L 536.323 306.626 L 536.323 306.626 Q 540.431 307.772 543.321 309.253 L 543.321 309.253 L 543.321 309.253 Q 546.211 310.733 548.193 312.334 L 548.193 312.334 L 548.193 312.334 Q 550.175 313.934 551.321 315.606 L 551.321 315.606 L 551.321 315.606 Q 552.468 317.277 553.089 318.806 L 553.089 318.806 L 553.089 318.806 Q 553.71 320.334 553.877 321.648 L 553.877 321.648 L 553.877 321.648 Q 554.044 322.962 554.044 323.869 L 554.044 323.869 L 554.044 323.869 Q 554.044 327.213 552.778 329.84 L 552.778 329.84 L 552.778 329.84 Q 551.513 332.467 549.363 334.473 L 549.363 334.473 L 549.363 334.473 Q 547.214 336.479 544.372 337.864 L 544.372 337.864 L 544.372 337.864 Q 541.529 339.25 538.425 340.133 L 538.425 340.133 L 538.425 340.133 Q 535.32 341.017 532.072 341.423 L 532.072 341.423 L 532.072 341.423 Q 528.824 341.829 525.91 341.829 L 525.91 341.829 L 525.91 341.829 Q 521.181 341.829 516.142 340.874 L 516.142 340.874 L 516.142 340.874 Q 511.103 339.918 505.944 337.769 L 505.944 337.769 L 505.944 337.769 Q 504.797 337.291 504.797 336.097 L 504.797 336.097 L 504.797 336.097 Q 504.797 335.285 505.371 334.784 L 505.371 334.784 L 505.371 334.784 Q 505.944 334.282 506.613 334.282 L 506.613 334.282 L 506.613 334.282 Q 506.947 334.282 507.329 334.425 L 507.329 334.425 L 507.329 334.425 Q 511.771 336.288 516.452 337.244 L 516.452 337.244 L 516.452 337.244 Q 521.133 338.199 525.862 338.199 L 525.862 338.199 L 525.862 338.199 Q 532.311 338.199 536.944 336.957 L 536.944 336.957 L 536.944 336.957 Q 541.577 335.715 544.563 333.685 L 544.563 333.685 L 544.563 333.685 Q 547.548 331.655 548.981 329.099 L 548.981 329.099 L 548.981 329.099 Q 550.414 326.544 550.414 323.917 L 550.414 323.917 L 550.414 323.917 Q 550.414 321.003 548.814 318.519 L 548.814 318.519 L 548.814 318.519 Q 547.214 316.035 544.276 314.077 L 544.276 314.077 L 544.276 314.077 Q 541.338 312.119 537.231 310.733 L 537.231 310.733 L 537.231 310.733 Q 533.123 309.348 528.107 308.679 L 528.107 308.679 L 528.107 308.679 Q 524.811 309.253 521.707 309.491 L 521.707 309.491 L 521.707 309.491 Q 518.602 309.73 515.975 309.73 L 515.975 309.73 L 514.876 309.73 L 514.876 309.73 Q 514.542 309.73 514.255 309.683 L 514.255 309.683 L 514.255 309.683 Q 510.816 317.946 506.063 323.965 L 506.063 323.965 L 506.063 323.965 Q 501.311 329.983 495.937 333.924 L 495.937 333.924 L 495.937 333.924 Q 490.563 337.864 484.903 339.751 L 484.903 339.751 L 484.903 339.751 Q 479.243 341.638 474.036 341.638 L 474.036 341.638 L 474.036 341.638 Q 468.639 341.638 464.125 340.133 L 464.125 340.133 L 464.125 340.133 Q 459.611 338.629 456.363 335.858 L 456.363 335.858 L 456.363 335.858 Q 453.115 333.088 451.299 329.147 L 451.299 329.147 L 451.299 329.147 Q 449.484 325.207 449.484 320.334 L 449.484 320.334 L 449.484 320.334 Q 449.484 315.271 451.467 309.85 L 451.467 309.85 L 451.467 309.85 Q 453.449 304.428 457.366 298.84 L 457.366 298.84 L 457.366 298.84 Q 461.092 293.585 465.629 289.406 L 465.629 289.406 L 465.629 289.406 Q 470.167 285.226 475.159 282.074 L 475.159 282.074 L 475.159 282.074 Q 480.15 278.921 485.452 276.676 L 485.452 276.676 L 485.452 276.676 Q 490.754 274.431 495.985 272.998 L 495.985 272.998 L 495.985 272.998 Q 501.215 271.565 506.206 270.92 L 506.206 270.92 L 506.206 270.92 Q 511.198 270.276 515.593 270.276 L 515.593 270.276 L 515.593 270.276 Q 519.175 270.276 522.423 270.514 L 522.423 270.514 L 522.423 270.514 Q 525.671 270.753 528.633 271.231 L 528.633 271.231 L 528.633 271.231 Q 530.352 269.32 531.403 268.484 L 531.403 268.484 L 531.403 268.484 Q 532.454 267.648 532.597 267.553 L 532.597 267.553 L 532.597 267.553 Q 533.17 267.266 533.6 267.266 L 533.6 267.266 L 533.6 267.266 Q 534.269 267.266 534.794 267.648 L 534.794 267.648 L 534.794 267.648 Q 535.32 268.031 535.32 268.747 L 535.32 268.747 L 535.32 268.747 Q 535.32 269.702 534.651 270.347 L 534.651 270.347 L 534.651 270.347 Q 533.982 270.992 532.836 272.091 L 532.836 272.091 L 532.836 272.091 Q 541.577 274.24 546.211 278.563 L 546.211 278.563 L 546.211 278.563 Q 550.844 282.886 550.844 289.239 L 550.844 289.239 L 550.844 289.239 Q 550.844 292.726 549.697 295.496 L 549.697 295.496 L 549.697 295.496 Q 548.551 298.266 546.569 300.368 L 546.569 300.368 L 546.569 300.368 Q 544.587 302.47 541.936 304.022 L 541.936 304.022 L 541.936 304.022 Q 539.285 305.575 536.323 306.626 Z  M 528.155 305.049 L 528.155 305.049 L 528.155 305.049 Q 530.257 304.667 532.478 304.046 L 532.478 304.046 L 532.478 304.046 Q 534.699 303.425 536.825 302.542 L 536.825 302.542 L 536.825 302.542 Q 538.95 301.658 540.861 300.44 L 540.861 300.44 L 540.861 300.44 Q 542.771 299.222 544.18 297.574 L 544.18 297.574 L 544.18 297.574 Q 545.59 295.926 546.425 293.872 L 546.425 293.872 L 546.425 293.872 Q 547.261 291.818 547.261 289.191 L 547.261 289.191 L 547.261 289.191 Q 547.261 283.841 542.819 280.354 L 542.819 280.354 L 542.819 280.354 Q 538.377 276.867 530.066 275.195 L 530.066 275.195 L 530.066 275.195 Q 527.677 278.157 525.576 281.739 L 525.576 281.739 L 525.576 281.739 Q 523.474 285.322 521.707 289.167 L 521.707 289.167 L 521.707 289.167 Q 519.939 293.012 518.53 296.953 L 518.53 296.953 L 518.53 296.953 Q 517.121 300.894 516.214 304.572 L 516.214 304.572 L 516.214 304.572 Q 517.169 304.524 517.981 304.524 L 517.981 304.524 L 517.981 304.524 Q 518.793 304.524 519.366 304.524 L 519.366 304.524 L 519.366 304.524 Q 521.229 304.524 523.426 304.643 L 523.426 304.643 L 523.426 304.643 Q 525.623 304.763 528.155 305.049 Z  M 526.006 274.527 L 526.006 274.527 L 526.006 274.527 Q 523.569 274.192 520.99 274.049 L 520.99 274.049 L 520.99 274.049 Q 518.411 273.906 515.593 273.906 L 515.593 273.906 L 515.593 273.906 Q 511.389 273.906 506.66 274.527 L 506.66 274.527 L 506.66 274.527 Q 501.931 275.148 496.964 276.485 L 496.964 276.485 L 496.964 276.485 Q 491.996 277.823 486.957 279.948 L 486.957 279.948 L 486.957 279.948 Q 481.917 282.074 477.165 285.059 L 477.165 285.059 L 477.165 285.059 Q 472.412 288.045 468.113 292.009 L 468.113 292.009 L 468.113 292.009 Q 463.814 295.974 460.279 300.941 L 460.279 300.941 L 460.279 300.941 Q 456.697 306.005 454.882 310.924 L 454.882 310.924 L 454.882 310.924 Q 453.067 315.844 453.067 320.287 L 453.067 320.287 L 453.067 320.287 Q 453.067 324.442 454.571 327.738 L 454.571 327.738 L 454.571 327.738 Q 456.076 331.034 458.847 333.303 L 458.847 333.303 L 458.847 333.303 Q 461.617 335.572 465.486 336.79 L 465.486 336.79 L 465.486 336.79 Q 469.355 338.008 474.036 338.008 L 474.036 338.008 L 474.036 338.008 Q 478.717 338.008 483.78 336.312 L 483.78 336.312 L 483.78 336.312 Q 488.844 334.616 493.668 331.106 L 493.668 331.106 L 493.668 331.106 Q 498.492 327.595 502.839 322.221 L 502.839 322.221 L 502.839 322.221 Q 507.186 316.847 510.434 309.444 L 510.434 309.444 L 510.434 309.444 Q 509.574 309.444 508.666 308.942 L 508.666 308.942 L 508.666 308.942 Q 507.759 308.441 507.759 307.342 L 507.759 307.342 L 507.759 307.342 Q 507.759 306.196 508.857 305.694 L 508.857 305.694 L 508.857 305.694 Q 509.956 305.193 512.297 304.858 L 512.297 304.858 L 512.297 304.858 Q 513.586 300.941 514.924 297.025 L 514.924 297.025 L 514.924 297.025 Q 516.261 293.108 517.885 289.286 L 517.885 289.286 L 517.885 289.286 Q 519.509 285.465 521.468 281.763 L 521.468 281.763 L 521.468 281.763 Q 523.426 278.061 526.006 274.527 Z  M 598.037 326.496 L 598.037 326.496 L 598.037 326.496 Q 597.846 326.878 597.249 328.096 L 597.249 328.096 L 597.249 328.096 Q 596.651 329.314 595.72 330.891 L 595.72 330.891 L 595.72 330.891 Q 594.789 332.467 593.547 334.187 L 593.547 334.187 L 593.547 334.187 Q 592.305 335.906 590.776 337.339 L 590.776 337.339 L 590.776 337.339 Q 589.248 338.772 587.48 339.703 L 587.48 339.703 L 587.48 339.703 Q 585.713 340.635 583.755 340.635 L 583.755 340.635 L 583.755 340.635 Q 580.984 340.635 579.097 338.868 L 579.097 338.868 L 579.097 338.868 Q 577.211 337.1 576.351 334.425 L 576.351 334.425 L 576.351 334.425 Q 574.727 337.148 572.482 338.748 L 572.482 338.748 L 572.482 338.748 Q 570.237 340.348 567.992 340.348 L 567.992 340.348 L 567.992 340.348 Q 566.225 340.348 564.792 339.703 L 564.792 339.703 L 564.792 339.703 Q 563.359 339.059 562.355 337.888 L 562.355 337.888 L 562.355 337.888 Q 561.352 336.718 560.803 335.142 L 560.803 335.142 L 560.803 335.142 Q 560.254 333.566 560.254 331.703 L 560.254 331.703 L 560.254 331.703 Q 560.254 327.977 561.52 325.135 L 561.52 325.135 L 561.52 325.135 Q 562.785 322.293 564.744 320.382 L 564.744 320.382 L 564.744 320.382 Q 566.702 318.471 569.067 317.516 L 569.067 317.516 L 569.067 317.516 Q 571.431 316.561 573.628 316.561 L 573.628 316.561 L 573.628 316.561 Q 575.109 316.561 576.351 316.967 L 576.351 316.967 L 576.351 316.967 Q 577.593 317.373 578.477 317.851 L 578.477 317.851 L 578.477 317.851 Q 579.36 318.328 579.838 318.734 L 579.838 318.734 L 579.838 318.734 Q 580.316 319.14 580.363 319.188 L 580.363 319.188 L 580.363 319.188 Q 580.889 319.809 580.889 320.478 L 580.889 320.478 L 580.889 320.478 Q 580.889 321.194 580.363 321.743 L 580.363 321.743 L 580.363 321.743 Q 579.838 322.293 579.121 322.293 L 579.121 322.293 L 579.121 322.293 Q 578.357 322.293 577.832 321.767 L 577.832 321.767 L 577.832 321.767 Q 577.736 321.672 577.402 321.409 L 577.402 321.409 L 577.402 321.409 Q 577.067 321.146 576.494 320.86 L 576.494 320.86 L 576.494 320.86 Q 575.921 320.573 575.133 320.358 L 575.133 320.358 L 575.133 320.358 Q 574.345 320.143 573.342 320.143 L 573.342 320.143 L 573.342 320.143 Q 571.861 320.143 570.189 320.812 L 570.189 320.812 L 570.189 320.812 Q 568.517 321.481 567.132 322.89 L 567.132 322.89 L 567.132 322.89 Q 565.747 324.299 564.815 326.425 L 564.815 326.425 L 564.815 326.425 Q 563.884 328.55 563.884 331.464 L 563.884 331.464 L 563.884 331.464 Q 563.884 332.371 564.075 333.303 L 564.075 333.303 L 564.075 333.303 Q 564.266 334.234 564.744 334.999 L 564.744 334.999 L 564.744 334.999 Q 565.221 335.763 566.033 336.24 L 566.033 336.24 L 566.033 336.24 Q 566.845 336.718 568.04 336.718 L 568.04 336.718 L 568.04 336.718 Q 568.899 336.718 570.022 336.145 L 570.022 336.145 L 570.022 336.145 Q 571.144 335.572 572.171 334.378 L 572.171 334.378 L 572.171 334.378 Q 573.198 333.183 574.034 331.368 L 574.034 331.368 L 574.034 331.368 Q 574.87 329.553 575.205 327.069 L 575.205 327.069 L 575.205 327.069 Q 575.3 326.401 575.826 325.947 L 575.826 325.947 L 575.826 325.947 Q 576.351 325.493 577.067 325.493 L 577.067 325.493 L 577.067 325.493 Q 577.736 325.493 578.238 326.019 L 578.238 326.019 L 578.238 326.019 Q 578.739 326.544 578.787 327.213 L 578.787 327.213 L 578.787 327.213 Q 578.835 328.12 578.978 329.768 L 578.978 329.768 L 578.978 329.768 Q 579.121 331.416 579.623 333.04 L 579.623 333.04 L 579.623 333.04 Q 580.124 334.664 581.128 335.858 L 581.128 335.858 L 581.128 335.858 Q 582.131 337.052 583.898 337.052 L 583.898 337.052 L 583.898 337.052 Q 585.044 337.052 586.167 336.432 L 586.167 336.432 L 586.167 336.432 Q 587.289 335.811 588.364 334.784 L 588.364 334.784 L 588.364 334.784 Q 589.439 333.757 590.418 332.443 L 590.418 332.443 L 590.418 332.443 Q 591.397 331.129 592.209 329.792 L 592.209 329.792 L 592.209 329.792 Q 593.021 328.455 593.642 327.213 L 593.642 327.213 L 593.642 327.213 Q 594.263 325.971 594.693 325.063 L 594.693 325.063 L 594.693 325.063 Q 594.932 324.538 595.386 324.251 L 595.386 324.251 L 595.386 324.251 Q 595.839 323.965 596.365 323.965 L 596.365 323.965 L 596.365 323.965 Q 597.177 323.965 597.678 324.562 L 597.678 324.562 L 597.678 324.562 Q 598.18 325.159 598.18 325.827 L 598.18 325.827 L 598.18 325.827 Q 598.18 326.162 598.037 326.496 Z  M 621.92 326.592 L 621.92 326.592 L 621.92 326.592 Q 621.394 327.69 620.606 329.195 L 620.606 329.195 L 620.606 329.195 Q 619.818 330.7 618.815 332.324 L 618.815 332.324 L 618.815 332.324 Q 617.812 333.948 616.57 335.548 L 616.57 335.548 L 616.57 335.548 Q 615.328 337.148 613.871 338.414 L 613.871 338.414 L 613.871 338.414 Q 612.414 339.68 610.766 340.468 L 610.766 340.468 L 610.766 340.468 Q 609.118 341.256 607.256 341.256 L 607.256 341.256 L 607.256 341.256 Q 604.39 341.256 602.336 339.489 L 602.336 339.489 L 602.336 339.489 Q 600.282 337.721 598.849 334.855 L 598.849 334.855 L 598.849 334.855 Q 597.416 331.989 596.532 328.335 L 596.532 328.335 L 596.532 328.335 Q 595.648 324.681 595.171 320.884 L 595.171 320.884 L 595.171 320.884 Q 594.693 317.086 594.526 313.504 L 594.526 313.504 L 594.526 313.504 Q 594.359 309.921 594.359 307.151 L 594.359 307.151 L 594.359 307.151 Q 594.359 303.139 594.621 298.84 L 594.621 298.84 L 594.621 298.84 Q 594.884 294.541 595.457 290.433 L 595.457 290.433 L 595.457 290.433 Q 596.031 286.325 596.914 282.647 L 596.914 282.647 L 596.914 282.647 Q 597.798 278.969 599.016 276.199 L 599.016 276.199 L 599.016 276.199 Q 600.234 273.428 601.81 271.804 L 601.81 271.804 L 601.81 271.804 Q 603.386 270.18 605.393 270.18 L 605.393 270.18 L 605.393 270.18 Q 606.969 270.18 608.235 270.92 L 608.235 270.92 L 608.235 270.92 Q 609.501 271.661 610.36 273.333 L 610.36 273.333 L 610.36 273.333 Q 611.22 275.004 611.698 277.679 L 611.698 277.679 L 611.698 277.679 Q 612.175 280.354 612.175 284.223 L 612.175 284.223 L 612.175 284.223 Q 612.175 289 611.172 294.087 L 611.172 294.087 L 611.172 294.087 Q 610.169 299.174 608.45 304.333 L 608.45 304.333 L 608.45 304.333 Q 606.73 309.491 604.39 314.626 L 604.39 314.626 L 604.39 314.626 Q 602.049 319.761 599.374 324.633 L 599.374 324.633 L 599.374 324.633 Q 600.568 330.7 602.574 334.163 L 602.574 334.163 L 602.574 334.163 Q 604.581 337.626 607.399 337.626 L 607.399 337.626 L 607.399 337.626 Q 609.309 337.626 611.077 336.121 L 611.077 336.121 L 611.077 336.121 Q 612.844 334.616 614.325 332.562 L 614.325 332.562 L 614.325 332.562 Q 615.806 330.509 616.928 328.383 L 616.928 328.383 L 616.928 328.383 Q 618.051 326.257 618.672 324.968 L 618.672 324.968 L 618.672 324.968 Q 618.91 324.49 619.34 324.227 L 619.34 324.227 L 619.34 324.227 Q 619.77 323.965 620.296 323.965 L 620.296 323.965 L 620.296 323.965 Q 621.108 323.965 621.609 324.538 L 621.609 324.538 L 621.609 324.538 Q 622.111 325.111 622.111 325.827 L 622.111 325.827 L 622.111 325.827 Q 622.111 326.114 621.92 326.592 Z  M 597.989 307.39 L 597.989 307.39 L 597.989 307.39 Q 597.989 310.447 598.132 313.265 L 598.132 313.265 L 598.132 313.265 Q 598.276 316.083 598.514 318.663 L 598.514 318.663 L 598.514 318.663 Q 600.521 314.794 602.336 310.423 L 602.336 310.423 L 602.336 310.423 Q 604.151 306.052 605.536 301.586 L 605.536 301.586 L 605.536 301.586 Q 606.921 297.12 607.757 292.702 L 607.757 292.702 L 607.757 292.702 Q 608.593 288.283 608.593 284.271 L 608.593 284.271 L 608.593 284.271 Q 608.593 278.635 607.685 276.199 L 607.685 276.199 L 607.685 276.199 Q 606.778 273.763 605.249 273.763 L 605.249 273.763 L 605.249 273.763 Q 604.246 273.763 603.315 275.148 L 603.315 275.148 L 603.315 275.148 Q 602.383 276.533 601.571 278.921 L 601.571 278.921 L 601.571 278.921 Q 600.759 281.31 600.091 284.558 L 600.091 284.558 L 600.091 284.558 Q 599.422 287.806 598.968 291.531 L 598.968 291.531 L 598.968 291.531 Q 598.514 295.257 598.252 299.317 L 598.252 299.317 L 598.252 299.317 Q 597.989 303.377 597.989 307.39 Z  M 645.85 326.592 L 645.85 326.592 L 645.85 326.592 Q 645.325 327.69 644.537 329.195 L 644.537 329.195 L 644.537 329.195 Q 643.749 330.7 642.746 332.324 L 642.746 332.324 L 642.746 332.324 Q 641.743 333.948 640.501 335.548 L 640.501 335.548 L 640.501 335.548 Q 639.259 337.148 637.802 338.414 L 637.802 338.414 L 637.802 338.414 Q 636.345 339.68 634.697 340.468 L 634.697 340.468 L 634.697 340.468 Q 633.049 341.256 631.186 341.256 L 631.186 341.256 L 631.186 341.256 Q 628.32 341.256 626.266 339.489 L 626.266 339.489 L 626.266 339.489 Q 624.212 337.721 622.779 334.855 L 622.779 334.855 L 622.779 334.855 Q 621.347 331.989 620.463 328.335 L 620.463 328.335 L 620.463 328.335 Q 619.579 324.681 619.102 320.884 L 619.102 320.884 L 619.102 320.884 Q 618.624 317.086 618.457 313.504 L 618.457 313.504 L 618.457 313.504 Q 618.29 309.921 618.29 307.151 L 618.29 307.151 L 618.29 307.151 Q 618.29 303.139 618.552 298.84 L 618.552 298.84 L 618.552 298.84 Q 618.815 294.541 619.388 290.433 L 619.388 290.433 L 619.388 290.433 Q 619.961 286.325 620.845 282.647 L 620.845 282.647 L 620.845 282.647 Q 621.729 278.969 622.947 276.199 L 622.947 276.199 L 622.947 276.199 Q 624.165 273.428 625.741 271.804 L 625.741 271.804 L 625.741 271.804 Q 627.317 270.18 629.323 270.18 L 629.323 270.18 L 629.323 270.18 Q 630.9 270.18 632.165 270.92 L 632.165 270.92 L 632.165 270.92 Q 633.431 271.661 634.291 273.333 L 634.291 273.333 L 634.291 273.333 Q 635.151 275.004 635.629 277.679 L 635.629 277.679 L 635.629 277.679 Q 636.106 280.354 636.106 284.223 L 636.106 284.223 L 636.106 284.223 Q 636.106 289 635.103 294.087 L 635.103 294.087 L 635.103 294.087 Q 634.1 299.174 632.38 304.333 L 632.38 304.333 L 632.38 304.333 Q 630.661 309.491 628.32 314.626 L 628.32 314.626 L 628.32 314.626 Q 625.98 319.761 623.305 324.633 L 623.305 324.633 L 623.305 324.633 Q 624.499 330.7 626.505 334.163 L 626.505 334.163 L 626.505 334.163 Q 628.511 337.626 631.33 337.626 L 631.33 337.626 L 631.33 337.626 Q 633.24 337.626 635.008 336.121 L 635.008 336.121 L 635.008 336.121 Q 636.775 334.616 638.256 332.562 L 638.256 332.562 L 638.256 332.562 Q 639.736 330.509 640.859 328.383 L 640.859 328.383 L 640.859 328.383 Q 641.981 326.257 642.602 324.968 L 642.602 324.968 L 642.602 324.968 Q 642.841 324.49 643.271 324.227 L 643.271 324.227 L 643.271 324.227 Q 643.701 323.965 644.226 323.965 L 644.226 323.965 L 644.226 323.965 Q 645.038 323.965 645.54 324.538 L 645.54 324.538 L 645.54 324.538 Q 646.042 325.111 646.042 325.827 L 646.042 325.827 L 646.042 325.827 Q 646.042 326.114 645.85 326.592 Z  M 621.92 307.39 L 621.92 307.39 L 621.92 307.39 Q 621.92 310.447 622.063 313.265 L 622.063 313.265 L 622.063 313.265 Q 622.206 316.083 622.445 318.663 L 622.445 318.663 L 622.445 318.663 Q 624.451 314.794 626.266 310.423 L 626.266 310.423 L 626.266 310.423 Q 628.081 306.052 629.467 301.586 L 629.467 301.586 L 629.467 301.586 Q 630.852 297.12 631.688 292.702 L 631.688 292.702 L 631.688 292.702 Q 632.524 288.283 632.524 284.271 L 632.524 284.271 L 632.524 284.271 Q 632.524 278.635 631.616 276.199 L 631.616 276.199 L 631.616 276.199 Q 630.709 273.763 629.18 273.763 L 629.18 273.763 L 629.18 273.763 Q 628.177 273.763 627.246 275.148 L 627.246 275.148 L 627.246 275.148 Q 626.314 276.533 625.502 278.921 L 625.502 278.921 L 625.502 278.921 Q 624.69 281.31 624.021 284.558 L 624.021 284.558 L 624.021 284.558 Q 623.353 287.806 622.899 291.531 L 622.899 291.531 L 622.899 291.531 Q 622.445 295.257 622.182 299.317 L 622.182 299.317 L 622.182 299.317 Q 621.92 303.377 621.92 307.39 Z  M 648.334 334.569 L 648.334 334.569 L 648.334 334.569 Q 649.337 335.954 650.914 336.79 L 650.914 336.79 L 650.914 336.79 Q 652.49 337.626 654.783 337.626 L 654.783 337.626 L 654.783 337.626 Q 657.123 337.626 659.034 336.503 L 659.034 336.503 L 659.034 336.503 Q 660.945 335.381 662.521 333.566 L 662.521 333.566 L 662.521 333.566 Q 664.097 331.75 665.339 329.505 L 665.339 329.505 L 665.339 329.505 Q 666.581 327.26 667.584 325.015 L 667.584 325.015 L 667.584 325.015 Q 667.823 324.49 668.253 324.227 L 668.253 324.227 L 668.253 324.227 Q 668.683 323.965 669.208 323.965 L 669.208 323.965 L 669.208 323.965 Q 670.02 323.965 670.522 324.538 L 670.522 324.538 L 670.522 324.538 Q 671.023 325.111 671.023 325.78 L 671.023 325.78 L 671.023 325.78 Q 671.023 326.019 670.975 326.186 L 670.975 326.186 L 670.975 326.186 Q 670.928 326.353 670.832 326.544 L 670.832 326.544 L 670.832 326.544 Q 667.536 333.804 663.643 337.482 L 663.643 337.482 L 663.643 337.482 Q 659.75 341.16 654.83 341.256 L 654.83 341.256 L 654.83 341.256 Q 651.678 341.256 649.385 340.038 L 649.385 340.038 L 649.385 340.038 Q 647.092 338.82 645.612 336.885 L 645.612 336.885 L 645.612 336.885 Q 644.131 334.951 643.414 332.515 L 643.414 332.515 L 643.414 332.515 Q 642.698 330.079 642.698 327.643 L 642.698 327.643 L 642.698 327.643 Q 642.698 325.207 643.295 323.153 L 643.295 323.153 L 643.295 323.153 Q 643.892 321.099 645.015 319.57 L 645.015 319.57 L 645.015 319.57 Q 646.137 318.042 647.689 317.182 L 647.689 317.182 L 647.689 317.182 Q 649.242 316.322 651.105 316.322 L 651.105 316.322 L 651.105 316.322 Q 652.203 316.322 653.278 316.776 L 653.278 316.776 L 653.278 316.776 Q 654.353 317.23 655.213 318.065 L 655.213 318.065 L 655.213 318.065 Q 656.072 318.901 656.598 320.096 L 656.598 320.096 L 656.598 320.096 Q 657.123 321.29 657.123 322.818 L 657.123 322.818 L 657.123 322.818 Q 657.123 324.777 656.455 326.496 L 656.455 326.496 L 656.455 326.496 Q 655.786 328.216 654.616 329.696 L 654.616 329.696 L 654.616 329.696 Q 653.445 331.177 651.821 332.419 L 651.821 332.419 L 651.821 332.419 Q 650.197 333.661 648.334 334.569 Z  M 646.901 331.464 L 646.901 331.464 L 646.901 331.464 Q 648.382 330.843 649.6 329.888 L 649.6 329.888 L 649.6 329.888 Q 650.818 328.932 651.678 327.786 L 651.678 327.786 L 651.678 327.786 Q 652.538 326.639 653.015 325.374 L 653.015 325.374 L 653.015 325.374 Q 653.493 324.108 653.493 322.818 L 653.493 322.818 L 653.493 322.818 Q 653.493 321.385 652.777 320.645 L 652.777 320.645 L 652.777 320.645 Q 652.06 319.904 651.105 319.904 L 651.105 319.904 L 651.105 319.904 Q 649.815 319.904 648.907 320.621 L 648.907 320.621 L 648.907 320.621 Q 648 321.337 647.427 322.484 L 647.427 322.484 L 647.427 322.484 Q 646.854 323.63 646.591 325.039 L 646.591 325.039 L 646.591 325.039 Q 646.328 326.448 646.328 327.834 L 646.328 327.834 L 646.328 327.834 Q 646.328 328.693 646.495 329.649 L 646.495 329.649 L 646.495 329.649 Q 646.662 330.604 646.901 331.464 Z  M 706.274 292.009 L 706.274 292.009 L 706.274 292.009 Q 706.274 292.773 705.749 293.227 L 705.749 293.227 L 705.749 293.227 Q 705.224 293.681 704.459 293.681 L 704.459 293.681 L 680.242 293.681 L 680.242 294.206 L 680.242 294.206 Q 680.242 297.12 679.812 300.416 L 679.812 300.416 L 679.812 300.416 Q 679.382 303.712 678.642 306.984 L 678.642 306.984 L 678.642 306.984 Q 677.901 310.256 676.97 313.361 L 676.97 313.361 L 676.97 313.361 Q 676.039 316.465 675.059 319.092 L 675.059 319.092 L 675.059 319.092 Q 674.08 321.72 673.125 323.654 L 673.125 323.654 L 673.125 323.654 Q 672.17 325.589 671.405 326.544 L 671.405 326.544 L 671.405 326.544 Q 672.026 328.741 672.886 330.628 L 672.886 330.628 L 672.886 330.628 Q 673.746 332.515 674.821 333.924 L 674.821 333.924 L 674.821 333.924 Q 675.895 335.333 677.137 336.145 L 677.137 336.145 L 677.137 336.145 Q 678.379 336.957 679.812 336.957 L 679.812 336.957 L 679.812 336.957 Q 681.484 336.957 683.132 335.548 L 683.132 335.548 L 683.132 335.548 Q 684.78 334.139 686.189 332.204 L 686.189 332.204 L 686.189 332.204 Q 687.598 330.27 688.673 328.287 L 688.673 328.287 L 688.673 328.287 Q 689.747 326.305 690.225 325.111 L 690.225 325.111 L 690.225 325.111 Q 690.703 323.965 691.897 323.965 L 691.897 323.965 L 691.897 323.965 Q 692.709 323.965 693.21 324.538 L 693.21 324.538 L 693.21 324.538 Q 693.712 325.111 693.712 325.78 L 693.712 325.78 L 693.712 325.78 Q 693.712 326.114 693.569 326.448 L 693.569 326.448 L 693.569 326.448 Q 693.425 326.783 692.876 327.977 L 692.876 327.977 L 692.876 327.977 Q 692.327 329.171 691.443 330.747 L 691.443 330.747 L 691.443 330.747 Q 690.559 332.324 689.389 334.067 L 689.389 334.067 L 689.389 334.067 Q 688.219 335.811 686.762 337.244 L 686.762 337.244 L 686.762 337.244 Q 685.305 338.677 683.633 339.632 L 683.633 339.632 L 683.633 339.632 Q 681.962 340.587 680.099 340.587 L 680.099 340.587 L 680.099 340.587 Q 676.803 340.587 674.176 338.438 L 674.176 338.438 L 674.176 338.438 Q 671.549 336.288 669.71 332.419 L 669.71 332.419 L 669.71 332.419 Q 667.871 328.55 666.915 323.248 L 666.915 323.248 L 666.915 323.248 Q 665.96 317.946 665.96 311.641 L 665.96 311.641 L 665.96 311.641 Q 665.96 310.065 666.008 307.939 L 666.008 307.939 L 666.008 307.939 Q 666.055 305.814 666.199 303.449 L 666.199 303.449 L 666.199 303.449 Q 666.342 301.085 666.629 298.577 L 666.629 298.577 L 666.629 298.577 Q 666.915 296.069 667.393 293.681 L 667.393 293.681 L 650.245 293.681 L 650.245 293.681 Q 649.481 293.681 648.955 293.227 L 648.955 293.227 L 648.955 293.227 Q 648.43 292.773 648.43 292.009 L 648.43 292.009 L 648.43 292.009 Q 648.43 291.245 648.955 290.791 L 648.955 290.791 L 648.955 290.791 Q 649.481 290.337 650.245 290.337 L 650.245 290.337 L 668.205 290.337 L 668.205 290.337 Q 668.683 288.618 669.327 287.185 L 669.327 287.185 L 669.327 287.185 Q 669.972 285.752 670.808 284.701 L 670.808 284.701 L 670.808 284.701 Q 671.644 283.65 672.671 283.053 L 672.671 283.053 L 672.671 283.053 Q 673.698 282.456 674.94 282.456 L 674.94 282.456 L 674.94 282.456 Q 676.134 282.456 677.018 283.053 L 677.018 283.053 L 677.018 283.053 Q 677.901 283.65 678.522 284.701 L 678.522 284.701 L 678.522 284.701 Q 679.143 285.752 679.502 287.185 L 679.502 287.185 L 679.502 287.185 Q 679.86 288.618 680.051 290.337 L 680.051 290.337 L 704.459 290.337 L 704.459 290.337 Q 705.224 290.337 705.749 290.791 L 705.749 290.791 L 705.749 290.791 Q 706.274 291.245 706.274 292.009 Z  M 670.307 321.767 L 670.307 321.767 L 670.307 321.767 Q 671.74 318.615 672.91 314.961 L 672.91 314.961 L 672.91 314.961 Q 674.08 311.307 674.916 307.581 L 674.916 307.581 L 674.916 307.581 Q 675.752 303.855 676.206 300.273 L 676.206 300.273 L 676.206 300.273 Q 676.66 296.69 676.66 293.681 L 676.66 293.681 L 671.023 293.681 L 671.023 293.681 Q 670.354 296.642 669.948 301.013 L 669.948 301.013 L 669.948 301.013 Q 669.542 305.384 669.542 311.641 L 669.542 311.641 L 669.542 311.641 Q 669.542 315.128 669.733 317.492 L 669.733 317.492 L 669.733 317.492 Q 669.925 319.857 670.307 321.767 Z  M 674.749 286.038 L 674.749 286.038 L 674.749 286.038 Q 674.319 286.038 673.507 286.97 L 673.507 286.97 L 673.507 286.97 Q 672.695 287.901 671.883 290.337 L 671.883 290.337 L 676.469 290.337 L 676.469 290.337 Q 676.23 288.331 675.776 287.185 L 675.776 287.185 L 675.776 287.185 Q 675.322 286.038 674.749 286.038 Z  M 671.071 325.254 L 671.071 325.207 L 671.071 325.254 Z " fill="black" stroke="none"/></mask><path d=" M 536.323 306.626 L 536.323 306.626 L 536.323 306.626 Q 540.431 307.772 543.321 309.253 L 543.321 309.253 L 543.321 309.253 Q 546.211 310.733 548.193 312.334 L 548.193 312.334 L 548.193 312.334 Q 550.175 313.934 551.321 315.606 L 551.321 315.606 L 551.321 315.606 Q 552.468 317.277 553.089 318.806 L 553.089 318.806 L 553.089 318.806 Q 553.71 320.334 553.877 321.648 L 553.877 321.648 L 553.877 321.648 Q 554.044 322.962 554.044 323.869 L 554.044 323.869 L 554.044 323.869 Q 554.044 327.213 552.778 329.84 L 552.778 329.84 L 552.778 329.84 Q 551.513 332.467 549.363 334.473 L 549.363 334.473 L 549.363 334.473 Q 547.214 336.479 544.372 337.864 L 544.372 337.864 L 544.372 337.864 Q 541.529 339.25 538.425 340.133 L 538.425 340.133 L 538.425 340.133 Q 535.32 341.017 532.072 341.423 L 532.072 341.423 L 532.072 341.423 Q 528.824 341.829 525.91 341.829 L 525.91 341.829 L 525.91 341.829 Q 521.181 341.829 516.142 340.874 L 516.142 340.874 L 516.142 340.874 Q 511.103 339.918 505.944 337.769 L 505.944 337.769 L 505.944 337.769 Q 504.797 337.291 504.797 336.097 L 504.797 336.097 L 504.797 336.097 Q 504.797 335.285 505.371 334.784 L 505.371 334.784 L 505.371 334.784 Q 505.944 334.282 506.613 334.282 L 506.613 334.282 L 506.613 334.282 Q 506.947 334.282 507.329 334.425 L 507.329 334.425 L 507.329 334.425 Q 511.771 336.288 516.452 337.244 L 516.452 337.244 L 516.452 337.244 Q 521.133 338.199 525.862 338.199 L 525.862 338.199 L 525.862 338.199 Q 532.311 338.199 536.944 336.957 L 536.944 336.957 L 536.944 336.957 Q 541.577 335.715 544.563 333.685 L 544.563 333.685 L 544.563 333.685 Q 547.548 331.655 548.981 329.099 L 548.981 329.099 L 548.981 329.099 Q 550.414 326.544 550.414 323.917 L 550.414 323.917 L 550.414 323.917 Q 550.414 321.003 548.814 318.519 L 548.814 318.519 L 548.814 318.519 Q 547.214 316.035 544.276 314.077 L 544.276 314.077 L 544.276 314.077 Q 541.338 312.119 537.231 310.733 L 537.231 310.733 L 537.231 310.733 Q 533.123 309.348 528.107 308.679 L 528.107 308.679 L 528.107 308.679 Q 524.811 309.253 521.707 309.491 L 521.707 309.491 L 521.707 309.491 Q 518.602 309.73 515.975 309.73 L 515.975 309.73 L 514.876 309.73 L 514.876 309.73 Q 514.542 309.73 514.255 309.683 L 514.255 309.683 L 514.255 309.683 Q 510.816 317.946 506.063 323.965 L 506.063 323.965 L 506.063 323.965 Q 501.311 329.983 495.937 333.924 L 495.937 333.924 L 495.937 333.924 Q 490.563 337.864 484.903 339.751 L 484.903 339.751 L 484.903 339.751 Q 479.243 341.638 474.036 341.638 L 474.036 341.638 L 474.036 341.638 Q 468.639 341.638 464.125 340.133 L 464.125 340.133 L 464.125 340.133 Q 459.611 338.629 456.363 335.858 L 456.363 335.858 L 456.363 335.858 Q 453.115 333.088 451.299 329.147 L 451.299 329.147 L 451.299 329.147 Q 449.484 325.207 449.484 320.334 L 449.484 320.334 L 449.484 320.334 Q 449.484 315.271 451.467 309.85 L 451.467 309.85 L 451.467 309.85 Q 453.449 304.428 457.366 298.84 L 457.366 298.84 L 457.366 298.84 Q 461.092 293.585 465.629 289.406 L 465.629 289.406 L 465.629 289.406 Q 470.167 285.226 475.159 282.074 L 475.159 282.074 L 475.159 282.074 Q 480.15 278.921 485.452 276.676 L 485.452 276.676 L 485.452 276.676 Q 490.754 274.431 495.985 272.998 L 495.985 272.998 L 495.985 272.998 Q 501.215 271.565 506.206 270.92 L 506.206 270.92 L 506.206 270.92 Q 511.198 270.276 515.593 270.276 L 515.593 270.276 L 515.593 270.276 Q 519.175 270.276 522.423 270.514 L 522.423 270.514 L 522.423 270.514 Q 525.671 270.753 528.633 271.231 L 528.633 271.231 L 528.633 271.231 Q 530.352 269.32 531.403 268.484 L 531.403 268.484 L 531.403 268.484 Q 532.454 267.648 532.597 267.553 L 532.597 267.553 L 532.597 267.553 Q 533.17 267.266 533.6 267.266 L 533.6 267.266 L 533.6 267.266 Q 534.269 267.266 534.794 267.648 L 534.794 267.648 L 534.794 267.648 Q 535.32 268.031 535.32 268.747 L 535.32 268.747 L 535.32 268.747 Q 535.32 269.702 534.651 270.347 L 534.651 270.347 L 534.651 270.347 Q 533.982 270.992 532.836 272.091 L 532.836 272.091 L 532.836 272.091 Q 541.577 274.24 546.211 278.563 L 546.211 278.563 L 546.211 278.563 Q 550.844 282.886 550.844 289.239 L 550.844 289.239 L 550.844 289.239 Q 550.844 292.726 549.697 295.496 L 549.697 295.496 L 549.697 295.496 Q 548.551 298.266 546.569 300.368 L 546.569 300.368 L 546.569 300.368 Q 544.587 302.47 541.936 304.022 L 541.936 304.022 L 541.936 304.022 Q 539.285 305.575 536.323 306.626 Z  M 528.155 305.049 L 528.155 305.049 L 528.155 305.049 Q 530.257 304.667 532.478 304.046 L 532.478 304.046 L 532.478 304.046 Q 534.699 303.425 536.825 302.542 L 536.825 302.542 L 536.825 302.542 Q 538.95 301.658 540.861 300.44 L 540.861 300.44 L 540.861 300.44 Q 542.771 299.222 544.18 297.574 L 544.18 297.574 L 544.18 297.574 Q 545.59 295.926 546.425 293.872 L 546.425 293.872 L 546.425 293.872 Q 547.261 291.818 547.261 289.191 L 547.261 289.191 L 547.261 289.191 Q 547.261 283.841 542.819 280.354 L 542.819 280.354 L 542.819 280.354 Q 538.377 276.867 530.066 275.195 L 530.066 275.195 L 530.066 275.195 Q 527.677 278.157 525.576 281.739 L 525.576 281.739 L 525.576 281.739 Q 523.474 285.322 521.707 289.167 L 521.707 289.167 L 521.707 289.167 Q 519.939 293.012 518.53 296.953 L 518.53 296.953 L 518.53 296.953 Q 517.121 300.894 516.214 304.572 L 516.214 304.572 L 516.214 304.572 Q 517.169 304.524 517.981 304.524 L 517.981 304.524 L 517.981 304.524 Q 518.793 304.524 519.366 304.524 L 519.366 304.524 L 519.366 304.524 Q 521.229 304.524 523.426 304.643 L 523.426 304.643 L 523.426 304.643 Q 525.623 304.763 528.155 305.049 Z  M 526.006 274.527 L 526.006 274.527 L 526.006 274.527 Q 523.569 274.192 520.99 274.049 L 520.99 274.049 L 520.99 274.049 Q 518.411 273.906 515.593 273.906 L 515.593 273.906 L 515.593 273.906 Q 511.389 273.906 506.66 274.527 L 506.66 274.527 L 506.66 274.527 Q 501.931 275.148 496.964 276.485 L 496.964 276.485 L 496.964 276.485 Q 491.996 277.823 486.957 279.948 L 486.957 279.948 L 486.957 279.948 Q 481.917 282.074 477.165 285.059 L 477.165 285.059 L 477.165 285.059 Q 472.412 288.045 468.113 292.009 L 468.113 292.009 L 468.113 292.009 Q 463.814 295.974 460.279 300.941 L 460.279 300.941 L 460.279 300.941 Q 456.697 306.005 454.882 310.924 L 454.882 310.924 L 454.882 310.924 Q 453.067 315.844 453.067 320.287 L 453.067 320.287 L 453.067 320.287 Q 453.067 324.442 454.571 327.738 L 454.571 327.738 L 454.571 327.738 Q 456.076 331.034 458.847 333.303 L 458.847 333.303 L 458.847 333.303 Q 461.617 335.572 465.486 336.79 L 465.486 336.79 L 465.486 336.79 Q 469.355 338.008 474.036 338.008 L 474.036 338.008 L 474.036 338.008 Q 478.717 338.008 483.78 336.312 L 483.78 336.312 L 483.78 336.312 Q 488.844 334.616 493.668 331.106 L 493.668 331.106 L 493.668 331.106 Q 498.492 327.595 502.839 322.221 L 502.839 322.221 L 502.839 322.221 Q 507.186 316.847 510.434 309.444 L 510.434 309.444 L 510.434 309.444 Q 509.574 309.444 508.666 308.942 L 508.666 308.942 L 508.666 308.942 Q 507.759 308.441 507.759 307.342 L 507.759 307.342 L 507.759 307.342 Q 507.759 306.196 508.857 305.694 L 508.857 305.694 L 508.857 305.694 Q 509.956 305.193 512.297 304.858 L 512.297 304.858 L 512.297 304.858 Q 513.586 300.941 514.924 297.025 L 514.924 297.025 L 514.924 297.025 Q 516.261 293.108 517.885 289.286 L 517.885 289.286 L 517.885 289.286 Q 519.509 285.465 521.468 281.763 L 521.468 281.763 L 521.468 281.763 Q 523.426 278.061 526.006 274.527 Z  M 598.037 326.496 L 598.037 326.496 L 598.037 326.496 Q 597.846 326.878 597.249 328.096 L 597.249 328.096 L 597.249 328.096 Q 596.651 329.314 595.72 330.891 L 595.72 330.891 L 595.72 330.891 Q 594.789 332.467 593.547 334.187 L 593.547 334.187 L 593.547 334.187 Q 592.305 335.906 590.776 337.339 L 590.776 337.339 L 590.776 337.339 Q 589.248 338.772 587.48 339.703 L 587.48 339.703 L 587.48 339.703 Q 585.713 340.635 583.755 340.635 L 583.755 340.635 L 583.755 340.635 Q 580.984 340.635 579.097 338.868 L 579.097 338.868 L 579.097 338.868 Q 577.211 337.1 576.351 334.425 L 576.351 334.425 L 576.351 334.425 Q 574.727 337.148 572.482 338.748 L 572.482 338.748 L 572.482 338.748 Q 570.237 340.348 567.992 340.348 L 567.992 340.348 L 567.992 340.348 Q 566.225 340.348 564.792 339.703 L 564.792 339.703 L 564.792 339.703 Q 563.359 339.059 562.355 337.888 L 562.355 337.888 L 562.355 337.888 Q 561.352 336.718 560.803 335.142 L 560.803 335.142 L 560.803 335.142 Q 560.254 333.566 560.254 331.703 L 560.254 331.703 L 560.254 331.703 Q 560.254 327.977 561.52 325.135 L 561.52 325.135 L 561.52 325.135 Q 562.785 322.293 564.744 320.382 L 564.744 320.382 L 564.744 320.382 Q 566.702 318.471 569.067 317.516 L 569.067 317.516 L 569.067 317.516 Q 571.431 316.561 573.628 316.561 L 573.628 316.561 L 573.628 316.561 Q 575.109 316.561 576.351 316.967 L 576.351 316.967 L 576.351 316.967 Q 577.593 317.373 578.477 317.851 L 578.477 317.851 L 578.477 317.851 Q 579.36 318.328 579.838 318.734 L 579.838 318.734 L 579.838 318.734 Q 580.316 319.14 580.363 319.188 L 580.363 319.188 L 580.363 319.188 Q 580.889 319.809 580.889 320.478 L 580.889 320.478 L 580.889 320.478 Q 580.889 321.194 580.363 321.743 L 580.363 321.743 L 580.363 321.743 Q 579.838 322.293 579.121 322.293 L 579.121 322.293 L 579.121 322.293 Q 578.357 322.293 577.832 321.767 L 577.832 321.767 L 577.832 321.767 Q 577.736 321.672 577.402 321.409 L 577.402 321.409 L 577.402 321.409 Q 577.067 321.146 576.494 320.86 L 576.494 320.86 L 576.494 320.86 Q 575.921 320.573 575.133 320.358 L 575.133 320.358 L 575.133 320.358 Q 574.345 320.143 573.342 320.143 L 573.342 320.143 L 573.342 320.143 Q 571.861 320.143 570.189 320.812 L 570.189 320.812 L 570.189 320.812 Q 568.517 321.481 567.132 322.89 L 567.132 322.89 L 567.132 322.89 Q 565.747 324.299 564.815 326.425 L 564.815 326.425 L 564.815 326.425 Q 563.884 328.55 563.884 331.464 L 563.884 331.464 L 563.884 331.464 Q 563.884 332.371 564.075 333.303 L 564.075 333.303 L 564.075 333.303 Q 564.266 334.234 564.744 334.999 L 564.744 334.999 L 564.744 334.999 Q 565.221 335.763 566.033 336.24 L 566.033 336.24 L 566.033 336.24 Q 566.845 336.718 568.04 336.718 L 568.04 336.718 L 568.04 336.718 Q 568.899 336.718 570.022 336.145 L 570.022 336.145 L 570.022 336.145 Q 571.144 335.572 572.171 334.378 L 572.171 334.378 L 572.171 334.378 Q 573.198 333.183 574.034 331.368 L 574.034 331.368 L 574.034 331.368 Q 574.87 329.553 575.205 327.069 L 575.205 327.069 L 575.205 327.069 Q 575.3 326.401 575.826 325.947 L 575.826 325.947 L 575.826 325.947 Q 576.351 325.493 577.067 325.493 L 577.067 325.493 L 577.067 325.493 Q 577.736 325.493 578.238 326.019 L 578.238 326.019 L 578.238 326.019 Q 578.739 326.544 578.787 327.213 L 578.787 327.213 L 578.787 327.213 Q 578.835 328.12 578.978 329.768 L 578.978 329.768 L 578.978 329.768 Q 579.121 331.416 579.623 333.04 L 579.623 333.04 L 579.623 333.04 Q 580.124 334.664 581.128 335.858 L 581.128 335.858 L 581.128 335.858 Q 582.131 337.052 583.898 337.052 L 583.898 337.052 L 583.898 337.052 Q 585.044 337.052 586.167 336.432 L 586.167 336.432 L 586.167 336.432 Q 587.289 335.811 588.364 334.784 L 588.364 334.784 L 588.364 334.784 Q 589.439 333.757 590.418 332.443 L 590.418 332.443 L 590.418 332.443 Q 591.397 331.129 592.209 329.792 L 592.209 329.792 L 592.209 329.792 Q 593.021 328.455 593.642 327.213 L 593.642 327.213 L 593.642 327.213 Q 594.263 325.971 594.693 325.063 L 594.693 325.063 L 594.693 325.063 Q 594.932 324.538 595.386 324.251 L 595.386 324.251 L 595.386 324.251 Q 595.839 323.965 596.365 323.965 L 596.365 323.965 L 596.365 323.965 Q 597.177 323.965 597.678 324.562 L 597.678 324.562 L 597.678 324.562 Q 598.18 325.159 598.18 325.827 L 598.18 325.827 L 598.18 325.827 Q 598.18 326.162 598.037 326.496 Z  M 621.92 326.592 L 621.92 326.592 L 621.92 326.592 Q 621.394 327.69 620.606 329.195 L 620.606 329.195 L 620.606 329.195 Q 619.818 330.7 618.815 332.324 L 618.815 332.324 L 618.815 332.324 Q 617.812 333.948 616.57 335.548 L 616.57 335.548 L 616.57 335.548 Q 615.328 337.148 613.871 338.414 L 613.871 338.414 L 613.871 338.414 Q 612.414 339.68 610.766 340.468 L 610.766 340.468 L 610.766 340.468 Q 609.118 341.256 607.256 341.256 L 607.256 341.256 L 607.256 341.256 Q 604.39 341.256 602.336 339.489 L 602.336 339.489 L 602.336 339.489 Q 600.282 337.721 598.849 334.855 L 598.849 334.855 L 598.849 334.855 Q 597.416 331.989 596.532 328.335 L 596.532 328.335 L 596.532 328.335 Q 595.648 324.681 595.171 320.884 L 595.171 320.884 L 595.171 320.884 Q 594.693 317.086 594.526 313.504 L 594.526 313.504 L 594.526 313.504 Q 594.359 309.921 594.359 307.151 L 594.359 307.151 L 594.359 307.151 Q 594.359 303.139 594.621 298.84 L 594.621 298.84 L 594.621 298.84 Q 594.884 294.541 595.457 290.433 L 595.457 290.433 L 595.457 290.433 Q 596.031 286.325 596.914 282.647 L 596.914 282.647 L 596.914 282.647 Q 597.798 278.969 599.016 276.199 L 599.016 276.199 L 599.016 276.199 Q 600.234 273.428 601.81 271.804 L 601.81 271.804 L 601.81 271.804 Q 603.386 270.18 605.393 270.18 L 605.393 270.18 L 605.393 270.18 Q 606.969 270.18 608.235 270.92 L 608.235 270.92 L 608.235 270.92 Q 609.501 271.661 610.36 273.333 L 610.36 273.333 L 610.36 273.333 Q 611.22 275.004 611.698 277.679 L 611.698 277.679 L 611.698 277.679 Q 612.175 280.354 612.175 284.223 L 612.175 284.223 L 612.175 284.223 Q 612.175 289 611.172 294.087 L 611.172 294.087 L 611.172 294.087 Q 610.169 299.174 608.45 304.333 L 608.45 304.333 L 608.45 304.333 Q 606.73 309.491 604.39 314.626 L 604.39 314.626 L 604.39 314.626 Q 602.049 319.761 599.374 324.633 L 599.374 324.633 L 599.374 324.633 Q 600.568 330.7 602.574 334.163 L 602.574 334.163 L 602.574 334.163 Q 604.581 337.626 607.399 337.626 L 607.399 337.626 L 607.399 337.626 Q 609.309 337.626 611.077 336.121 L 611.077 336.121 L 611.077 336.121 Q 612.844 334.616 614.325 332.562 L 614.325 332.562 L 614.325 332.562 Q 615.806 330.509 616.928 328.383 L 616.928 328.383 L 616.928 328.383 Q 618.051 326.257 618.672 324.968 L 618.672 324.968 L 618.672 324.968 Q 618.91 324.49 619.34 324.227 L 619.34 324.227 L 619.34 324.227 Q 619.77 323.965 620.296 323.965 L 620.296 323.965 L 620.296 323.965 Q 621.108 323.965 621.609 324.538 L 621.609 324.538 L 621.609 324.538 Q 622.111 325.111 622.111 325.827 L 622.111 325.827 L 622.111 325.827 Q 622.111 326.114 621.92 326.592 Z  M 597.989 307.39 L 597.989 307.39 L 597.989 307.39 Q 597.989 310.447 598.132 313.265 L 598.132 313.265 L 598.132 313.265 Q 598.276 316.083 598.514 318.663 L 598.514 318.663 L 598.514 318.663 Q 600.521 314.794 602.336 310.423 L 602.336 310.423 L 602.336 310.423 Q 604.151 306.052 605.536 301.586 L 605.536 301.586 L 605.536 301.586 Q 606.921 297.12 607.757 292.702 L 607.757 292.702 L 607.757 292.702 Q 608.593 288.283 608.593 284.271 L 608.593 284.271 L 608.593 284.271 Q 608.593 278.635 607.685 276.199 L 607.685 276.199 L 607.685 276.199 Q 606.778 273.763 605.249 273.763 L 605.249 273.763 L 605.249 273.763 Q 604.246 273.763 603.315 275.148 L 603.315 275.148 L 603.315 275.148 Q 602.383 276.533 601.571 278.921 L 601.571 278.921 L 601.571 278.921 Q 600.759 281.31 600.091 284.558 L 600.091 284.558 L 600.091 284.558 Q 599.422 287.806 598.968 291.531 L 598.968 291.531 L 598.968 291.531 Q 598.514 295.257 598.252 299.317 L 598.252 299.317 L 598.252 299.317 Q 597.989 303.377 597.989 307.39 Z  M 645.85 326.592 L 645.85 326.592 L 645.85 326.592 Q 645.325 327.69 644.537 329.195 L 644.537 329.195 L 644.537 329.195 Q 643.749 330.7 642.746 332.324 L 642.746 332.324 L 642.746 332.324 Q 641.743 333.948 640.501 335.548 L 640.501 335.548 L 640.501 335.548 Q 639.259 337.148 637.802 338.414 L 637.802 338.414 L 637.802 338.414 Q 636.345 339.68 634.697 340.468 L 634.697 340.468 L 634.697 340.468 Q 633.049 341.256 631.186 341.256 L 631.186 341.256 L 631.186 341.256 Q 628.32 341.256 626.266 339.489 L 626.266 339.489 L 626.266 339.489 Q 624.212 337.721 622.779 334.855 L 622.779 334.855 L 622.779 334.855 Q 621.347 331.989 620.463 328.335 L 620.463 328.335 L 620.463 328.335 Q 619.579 324.681 619.102 320.884 L 619.102 320.884 L 619.102 320.884 Q 618.624 317.086 618.457 313.504 L 618.457 313.504 L 618.457 313.504 Q 618.29 309.921 618.29 307.151 L 618.29 307.151 L 618.29 307.151 Q 618.29 303.139 618.552 298.84 L 618.552 298.84 L 618.552 298.84 Q 618.815 294.541 619.388 290.433 L 619.388 290.433 L 619.388 290.433 Q 619.961 286.325 620.845 282.647 L 620.845 282.647 L 620.845 282.647 Q 621.729 278.969 622.947 276.199 L 622.947 276.199 L 622.947 276.199 Q 624.165 273.428 625.741 271.804 L 625.741 271.804 L 625.741 271.804 Q 627.317 270.18 629.323 270.18 L 629.323 270.18 L 629.323 270.18 Q 630.9 270.18 632.165 270.92 L 632.165 270.92 L 632.165 270.92 Q 633.431 271.661 634.291 273.333 L 634.291 273.333 L 634.291 273.333 Q 635.151 275.004 635.629 277.679 L 635.629 277.679 L 635.629 277.679 Q 636.106 280.354 636.106 284.223 L 636.106 284.223 L 636.106 284.223 Q 636.106 289 635.103 294.087 L 635.103 294.087 L 635.103 294.087 Q 634.1 299.174 632.38 304.333 L 632.38 304.333 L 632.38 304.333 Q 630.661 309.491 628.32 314.626 L 628.32 314.626 L 628.32 314.626 Q 625.98 319.761 623.305 324.633 L 623.305 324.633 L 623.305 324.633 Q 624.499 330.7 626.505 334.163 L 626.505 334.163 L 626.505 334.163 Q 628.511 337.626 631.33 337.626 L 631.33 337.626 L 631.33 337.626 Q 633.24 337.626 635.008 336.121 L 635.008 336.121 L 635.008 336.121 Q 636.775 334.616 638.256 332.562 L 638.256 332.562 L 638.256 332.562 Q 639.736 330.509 640.859 328.383 L 640.859 328.383 L 640.859 328.383 Q 641.981 326.257 642.602 324.968 L 642.602 324.968 L 642.602 324.968 Q 642.841 324.49 643.271 324.227 L 643.271 324.227 L 643.271 324.227 Q 643.701 323.965 644.226 323.965 L 644.226 323.965 L 644.226 323.965 Q 645.038 323.965 645.54 324.538 L 645.54 324.538 L 645.54 324.538 Q 646.042 325.111 646.042 325.827 L 646.042 325.827 L 646.042 325.827 Q 646.042 326.114 645.85 326.592 Z  M 621.92 307.39 L 621.92 307.39 L 621.92 307.39 Q 621.92 310.447 622.063 313.265 L 622.063 313.265 L 622.063 313.265 Q 622.206 316.083 622.445 318.663 L 622.445 318.663 L 622.445 318.663 Q 624.451 314.794 626.266 310.423 L 626.266 310.423 L 626.266 310.423 Q 628.081 306.052 629.467 301.586 L 629.467 301.586 L 629.467 301.586 Q 630.852 297.12 631.688 292.702 L 631.688 292.702 L 631.688 292.702 Q 632.524 288.283 632.524 284.271 L 632.524 284.271 L 632.524 284.271 Q 632.524 278.635 631.616 276.199 L 631.616 276.199 L 631.616 276.199 Q 630.709 273.763 629.18 273.763 L 629.18 273.763 L 629.18 273.763 Q 628.177 273.763 627.246 275.148 L 627.246 275.148 L 627.246 275.148 Q 626.314 276.533 625.502 278.921 L 625.502 278.921 L 625.502 278.921 Q 624.69 281.31 624.021 284.558 L 624.021 284.558 L 624.021 284.558 Q 623.353 287.806 622.899 291.531 L 622.899 291.531 L 622.899 291.531 Q 622.445 295.257 622.182 299.317 L 622.182 299.317 L 622.182 299.317 Q 621.92 303.377 621.92 307.39 Z  M 648.334 334.569 L 648.334 334.569 L 648.334 334.569 Q 649.337 335.954 650.914 336.79 L 650.914 336.79 L 650.914 336.79 Q 652.49 337.626 654.783 337.626 L 654.783 337.626 L 654.783 337.626 Q 657.123 337.626 659.034 336.503 L 659.034 336.503 L 659.034 336.503 Q 660.945 335.381 662.521 333.566 L 662.521 333.566 L 662.521 333.566 Q 664.097 331.75 665.339 329.505 L 665.339 329.505 L 665.339 329.505 Q 666.581 327.26 667.584 325.015 L 667.584 325.015 L 667.584 325.015 Q 667.823 324.49 668.253 324.227 L 668.253 324.227 L 668.253 324.227 Q 668.683 323.965 669.208 323.965 L 669.208 323.965 L 669.208 323.965 Q 670.02 323.965 670.522 324.538 L 670.522 324.538 L 670.522 324.538 Q 671.023 325.111 671.023 325.78 L 671.023 325.78 L 671.023 325.78 Q 671.023 326.019 670.975 326.186 L 670.975 326.186 L 670.975 326.186 Q 670.928 326.353 670.832 326.544 L 670.832 326.544 L 670.832 326.544 Q 667.536 333.804 663.643 337.482 L 663.643 337.482 L 663.643 337.482 Q 659.75 341.16 654.83 341.256 L 654.83 341.256 L 654.83 341.256 Q 651.678 341.256 649.385 340.038 L 649.385 340.038 L 649.385 340.038 Q 647.092 338.82 645.612 336.885 L 645.612 336.885 L 645.612 336.885 Q 644.131 334.951 643.414 332.515 L 643.414 332.515 L 643.414 332.515 Q 642.698 330.079 642.698 327.643 L 642.698 327.643 L 642.698 327.643 Q 642.698 325.207 643.295 323.153 L 643.295 323.153 L 643.295 323.153 Q 643.892 321.099 645.015 319.57 L 645.015 319.57 L 645.015 319.57 Q 646.137 318.042 647.689 317.182 L 647.689 317.182 L 647.689 317.182 Q 649.242 316.322 651.105 316.322 L 651.105 316.322 L 651.105 316.322 Q 652.203 316.322 653.278 316.776 L 653.278 316.776 L 653.278 316.776 Q 654.353 317.23 655.213 318.065 L 655.213 318.065 L 655.213 318.065 Q 656.072 318.901 656.598 320.096 L 656.598 320.096 L 656.598 320.096 Q 657.123 321.29 657.123 322.818 L 657.123 322.818 L 657.123 322.818 Q 657.123 324.777 656.455 326.496 L 656.455 326.496 L 656.455 326.496 Q 655.786 328.216 654.616 329.696 L 654.616 329.696 L 654.616 329.696 Q 653.445 331.177 651.821 332.419 L 651.821 332.419 L 651.821 332.419 Q 650.197 333.661 648.334 334.569 Z  M 646.901 331.464 L 646.901 331.464 L 646.901 331.464 Q 648.382 330.843 649.6 329.888 L 649.6 329.888 L 649.6 329.888 Q 650.818 328.932 651.678 327.786 L 651.678 327.786 L 651.678 327.786 Q 652.538 326.639 653.015 325.374 L 653.015 325.374 L 653.015 325.374 Q 653.493 324.108 653.493 322.818 L 653.493 322.818 L 653.493 322.818 Q 653.493 321.385 652.777 320.645 L 652.777 320.645 L 652.777 320.645 Q 652.06 319.904 651.105 319.904 L 651.105 319.904 L 651.105 319.904 Q 649.815 319.904 648.907 320.621 L 648.907 320.621 L 648.907 320.621 Q 648 321.337 647.427 322.484 L 647.427 322.484 L 647.427 322.484 Q 646.854 323.63 646.591 325.039 L 646.591 325.039 L 646.591 325.039 Q 646.328 326.448 646.328 327.834 L 646.328 327.834 L 646.328 327.834 Q 646.328 328.693 646.495 329.649 L 646.495 329.649 L 646.495 329.649 Q 646.662 330.604 646.901 331.464 Z  M 706.274 292.009 L 706.274 292.009 L 706.274 292.009 Q 706.274 292.773 705.749 293.227 L 705.749 293.227 L 705.749 293.227 Q 705.224 293.681 704.459 293.681 L 704.459 293.681 L 680.242 293.681 L 680.242 294.206 L 680.242 294.206 Q 680.242 297.12 679.812 300.416 L 679.812 300.416 L 679.812 300.416 Q 679.382 303.712 678.642 306.984 L 678.642 306.984 L 678.642 306.984 Q 677.901 310.256 676.97 313.361 L 676.97 313.361 L 676.97 313.361 Q 676.039 316.465 675.059 319.092 L 675.059 319.092 L 675.059 319.092 Q 674.08 321.72 673.125 323.654 L 673.125 323.654 L 673.125 323.654 Q 672.17 325.589 671.405 326.544 L 671.405 326.544 L 671.405 326.544 Q 672.026 328.741 672.886 330.628 L 672.886 330.628 L 672.886 330.628 Q 673.746 332.515 674.821 333.924 L 674.821 333.924 L 674.821 333.924 Q 675.895 335.333 677.137 336.145 L 677.137 336.145 L 677.137 336.145 Q 678.379 336.957 679.812 336.957 L 679.812 336.957 L 679.812 336.957 Q 681.484 336.957 683.132 335.548 L 683.132 335.548 L 683.132 335.548 Q 684.78 334.139 686.189 332.204 L 686.189 332.204 L 686.189 332.204 Q 687.598 330.27 688.673 328.287 L 688.673 328.287 L 688.673 328.287 Q 689.747 326.305 690.225 325.111 L 690.225 325.111 L 690.225 325.111 Q 690.703 323.965 691.897 323.965 L 691.897 323.965 L 691.897 323.965 Q 692.709 323.965 693.21 324.538 L 693.21 324.538 L 693.21 324.538 Q 693.712 325.111 693.712 325.78 L 693.712 325.78 L 693.712 325.78 Q 693.712 326.114 693.569 326.448 L 693.569 326.448 L 693.569 326.448 Q 693.425 326.783 692.876 327.977 L 692.876 327.977 L 692.876 327.977 Q 692.327 329.171 691.443 330.747 L 691.443 330.747 L 691.443 330.747 Q 690.559 332.324 689.389 334.067 L 689.389 334.067 L 689.389 334.067 Q 688.219 335.811 686.762 337.244 L 686.762 337.244 L 686.762 337.244 Q 685.305 338.677 683.633 339.632 L 683.633 339.632 L 683.633 339.632 Q 681.962 340.587 680.099 340.587 L 680.099 340.587 L 680.099 340.587 Q 676.803 340.587 674.176 338.438 L 674.176 338.438 L 674.176 338.438 Q 671.549 336.288 669.71 332.419 L 669.71 332.419 L 669.71 332.419 Q 667.871 328.55 666.915 323.248 L 666.915 323.248 L 666.915 323.248 Q 665.96 317.946 665.96 311.641 L 665.96 311.641 L 665.96 311.641 Q 665.96 310.065 666.008 307.939 L 666.008 307.939 L 666.008 307.939 Q 666.055 305.814 666.199 303.449 L 666.199 303.449 L 666.199 303.449 Q 666.342 301.085 666.629 298.577 L 666.629 298.577 L 666.629 298.577 Q 666.915 296.069 667.393 293.681 L 667.393 293.681 L 650.245 293.681 L 650.245 293.681 Q 649.481 293.681 648.955 293.227 L 648.955 293.227 L 648.955 293.227 Q 648.43 292.773 648.43 292.009 L 648.43 292.009 L 648.43 292.009 Q 648.43 291.245 648.955 290.791 L 648.955 290.791 L 648.955 290.791 Q 649.481 290.337 650.245 290.337 L 650.245 290.337 L 668.205 290.337 L 668.205 290.337 Q 668.683 288.618 669.327 287.185 L 669.327 287.185 L 669.327 287.185 Q 669.972 285.752 670.808 284.701 L 670.808 284.701 L 670.808 284.701 Q 671.644 283.65 672.671 283.053 L 672.671 283.053 L 672.671 283.053 Q 673.698 282.456 674.94 282.456 L 674.94 282.456 L 674.94 282.456 Q 676.134 282.456 677.018 283.053 L 677.018 283.053 L 677.018 283.053 Q 677.901 283.65 678.522 284.701 L 678.522 284.701 L 678.522 284.701 Q 679.143 285.752 679.502 287.185 L 679.502 287.185 L 679.502 287.185 Q 679.86 288.618 680.051 290.337 L 680.051 290.337 L 704.459 290.337 L 704.459 290.337 Q 705.224 290.337 705.749 290.791 L 705.749 290.791 L 705.749 290.791 Q 706.274 291.245 706.274 292.009 Z  M 670.307 321.767 L 670.307 321.767 L 670.307 321.767 Q 671.74 318.615 672.91 314.961 L 672.91 314.961 L 672.91 314.961 Q 674.08 311.307 674.916 307.581 L 674.916 307.581 L 674.916 307.581 Q 675.752 303.855 676.206 300.273 L 676.206 300.273 L 676.206 300.273 Q 676.66 296.69 676.66 293.681 L 676.66 293.681 L 671.023 293.681 L 671.023 293.681 Q 670.354 296.642 669.948 301.013 L 669.948 301.013 L 669.948 301.013 Q 669.542 305.384 669.542 311.641 L 669.542 311.641 L 669.542 311.641 Q 669.542 315.128 669.733 317.492 L 669.733 317.492 L 669.733 317.492 Q 669.925 319.857 670.307 321.767 Z  M 674.749 286.038 L 674.749 286.038 L 674.749 286.038 Q 674.319 286.038 673.507 286.97 L 673.507 286.97 L 673.507 286.97 Q 672.695 287.901 671.883 290.337 L 671.883 290.337 L 676.469 290.337 L 676.469 290.337 Q 676.23 288.331 675.776 287.185 L 675.776 287.185 L 675.776 287.185 Q 675.322 286.038 674.749 286.038 Z  M 671.071 325.254 L 671.071 325.207 L 671.071 325.254 Z " fill="rgb(255,255,255)"/><path d=" M 536.323 306.626 L 536.323 306.626 L 536.323 306.626 Q 540.431 307.772 543.321 309.253 L 543.321 309.253 L 543.321 309.253 Q 546.211 310.733 548.193 312.334 L 548.193 312.334 L 548.193 312.334 Q 550.175 313.934 551.321 315.606 L 551.321 315.606 L 551.321 315.606 Q 552.468 317.277 553.089 318.806 L 553.089 318.806 L 553.089 318.806 Q 553.71 320.334 553.877 321.648 L 553.877 321.648 L 553.877 321.648 Q 554.044 322.962 554.044 323.869 L 554.044 323.869 L 554.044 323.869 Q 554.044 327.213 552.778 329.84 L 552.778 329.84 L 552.778 329.84 Q 551.513 332.467 549.363 334.473 L 549.363 334.473 L 549.363 334.473 Q 547.214 336.479 544.372 337.864 L 544.372 337.864 L 544.372 337.864 Q 541.529 339.25 538.425 340.133 L 538.425 340.133 L 538.425 340.133 Q 535.32 341.017 532.072 341.423 L 532.072 341.423 L 532.072 341.423 Q 528.824 341.829 525.91 341.829 L 525.91 341.829 L 525.91 341.829 Q 521.181 341.829 516.142 340.874 L 516.142 340.874 L 516.142 340.874 Q 511.103 339.918 505.944 337.769 L 505.944 337.769 L 505.944 337.769 Q 504.797 337.291 504.797 336.097 L 504.797 336.097 L 504.797 336.097 Q 504.797 335.285 505.371 334.784 L 505.371 334.784 L 505.371 334.784 Q 505.944 334.282 506.613 334.282 L 506.613 334.282 L 506.613 334.282 Q 506.947 334.282 507.329 334.425 L 507.329 334.425 L 507.329 334.425 Q 511.771 336.288 516.452 337.244 L 516.452 337.244 L 516.452 337.244 Q 521.133 338.199 525.862 338.199 L 525.862 338.199 L 525.862 338.199 Q 532.311 338.199 536.944 336.957 L 536.944 336.957 L 536.944 336.957 Q 541.577 335.715 544.563 333.685 L 544.563 333.685 L 544.563 333.685 Q 547.548 331.655 548.981 329.099 L 548.981 329.099 L 548.981 329.099 Q 550.414 326.544 550.414 323.917 L 550.414 323.917 L 550.414 323.917 Q 550.414 321.003 548.814 318.519 L 548.814 318.519 L 548.814 318.519 Q 547.214 316.035 544.276 314.077 L 544.276 314.077 L 544.276 314.077 Q 541.338 312.119 537.231 310.733 L 537.231 310.733 L 537.231 310.733 Q 533.123 309.348 528.107 308.679 L 528.107 308.679 L 528.107 308.679 Q 524.811 309.253 521.707 309.491 L 521.707 309.491 L 521.707 309.491 Q 518.602 309.73 515.975 309.73 L 515.975 309.73 L 514.876 309.73 L 514.876 309.73 Q 514.542 309.73 514.255 309.683 L 514.255 309.683 L 514.255 309.683 Q 510.816 317.946 506.063 323.965 L 506.063 323.965 L 506.063 323.965 Q 501.311 329.983 495.937 333.924 L 495.937 333.924 L 495.937 333.924 Q 490.563 337.864 484.903 339.751 L 484.903 339.751 L 484.903 339.751 Q 479.243 341.638 474.036 341.638 L 474.036 341.638 L 474.036 341.638 Q 468.639 341.638 464.125 340.133 L 464.125 340.133 L 464.125 340.133 Q 459.611 338.629 456.363 335.858 L 456.363 335.858 L 456.363 335.858 Q 453.115 333.088 451.299 329.147 L 451.299 329.147 L 451.299 329.147 Q 449.484 325.207 449.484 320.334 L 449.484 320.334 L 449.484 320.334 Q 449.484 315.271 451.467 309.85 L 451.467 309.85 L 451.467 309.85 Q 453.449 304.428 457.366 298.84 L 457.366 298.84 L 457.366 298.84 Q 461.092 293.585 465.629 289.406 L 465.629 289.406 L 465.629 289.406 Q 470.167 285.226 475.159 282.074 L 475.159 282.074 L 475.159 282.074 Q 480.15 278.921 485.452 276.676 L 485.452 276.676 L 485.452 276.676 Q 490.754 274.431 495.985 272.998 L 495.985 272.998 L 495.985 272.998 Q 501.215 271.565 506.206 270.92 L 506.206 270.92 L 506.206 270.92 Q 511.198 270.276 515.593 270.276 L 515.593 270.276 L 515.593 270.276 Q 519.175 270.276 522.423 270.514 L 522.423 270.514 L 522.423 270.514 Q 525.671 270.753 528.633 271.231 L 528.633 271.231 L 528.633 271.231 Q 530.352 269.32 531.403 268.484 L 531.403 268.484 L 531.403 268.484 Q 532.454 267.648 532.597 267.553 L 532.597 267.553 L 532.597 267.553 Q 533.17 267.266 533.6 267.266 L 533.6 267.266 L 533.6 267.266 Q 534.269 267.266 534.794 267.648 L 534.794 267.648 L 534.794 267.648 Q 535.32 268.031 535.32 268.747 L 535.32 268.747 L 535.32 268.747 Q 535.32 269.702 534.651 270.347 L 534.651 270.347 L 534.651 270.347 Q 533.982 270.992 532.836 272.091 L 532.836 272.091 L 532.836 272.091 Q 541.577 274.24 546.211 278.563 L 546.211 278.563 L 546.211 278.563 Q 550.844 282.886 550.844 289.239 L 550.844 289.239 L 550.844 289.239 Q 550.844 292.726 549.697 295.496 L 549.697 295.496 L 549.697 295.496 Q 548.551 298.266 546.569 300.368 L 546.569 300.368 L 546.569 300.368 Q 544.587 302.47 541.936 304.022 L 541.936 304.022 L 541.936 304.022 Q 539.285 305.575 536.323 306.626 Z  M 528.155 305.049 L 528.155 305.049 L 528.155 305.049 Q 530.257 304.667 532.478 304.046 L 532.478 304.046 L 532.478 304.046 Q 534.699 303.425 536.825 302.542 L 536.825 302.542 L 536.825 302.542 Q 538.95 301.658 540.861 300.44 L 540.861 300.44 L 540.861 300.44 Q 542.771 299.222 544.18 297.574 L 544.18 297.574 L 544.18 297.574 Q 545.59 295.926 546.425 293.872 L 546.425 293.872 L 546.425 293.872 Q 547.261 291.818 547.261 289.191 L 547.261 289.191 L 547.261 289.191 Q 547.261 283.841 542.819 280.354 L 542.819 280.354 L 542.819 280.354 Q 538.377 276.867 530.066 275.195 L 530.066 275.195 L 530.066 275.195 Q 527.677 278.157 525.576 281.739 L 525.576 281.739 L 525.576 281.739 Q 523.474 285.322 521.707 289.167 L 521.707 289.167 L 521.707 289.167 Q 519.939 293.012 518.53 296.953 L 518.53 296.953 L 518.53 296.953 Q 517.121 300.894 516.214 304.572 L 516.214 304.572 L 516.214 304.572 Q 517.169 304.524 517.981 304.524 L 517.981 304.524 L 517.981 304.524 Q 518.793 304.524 519.366 304.524 L 519.366 304.524 L 519.366 304.524 Q 521.229 304.524 523.426 304.643 L 523.426 304.643 L 523.426 304.643 Q 525.623 304.763 528.155 305.049 Z  M 526.006 274.527 L 526.006 274.527 L 526.006 274.527 Q 523.569 274.192 520.99 274.049 L 520.99 274.049 L 520.99 274.049 Q 518.411 273.906 515.593 273.906 L 515.593 273.906 L 515.593 273.906 Q 511.389 273.906 506.66 274.527 L 506.66 274.527 L 506.66 274.527 Q 501.931 275.148 496.964 276.485 L 496.964 276.485 L 496.964 276.485 Q 491.996 277.823 486.957 279.948 L 486.957 279.948 L 486.957 279.948 Q 481.917 282.074 477.165 285.059 L 477.165 285.059 L 477.165 285.059 Q 472.412 288.045 468.113 292.009 L 468.113 292.009 L 468.113 292.009 Q 463.814 295.974 460.279 300.941 L 460.279 300.941 L 460.279 300.941 Q 456.697 306.005 454.882 310.924 L 454.882 310.924 L 454.882 310.924 Q 453.067 315.844 453.067 320.287 L 453.067 320.287 L 453.067 320.287 Q 453.067 324.442 454.571 327.738 L 454.571 327.738 L 454.571 327.738 Q 456.076 331.034 458.847 333.303 L 458.847 333.303 L 458.847 333.303 Q 461.617 335.572 465.486 336.79 L 465.486 336.79 L 465.486 336.79 Q 469.355 338.008 474.036 338.008 L 474.036 338.008 L 474.036 338.008 Q 478.717 338.008 483.78 336.312 L 483.78 336.312 L 483.78 336.312 Q 488.844 334.616 493.668 331.106 L 493.668 331.106 L 493.668 331.106 Q 498.492 327.595 502.839 322.221 L 502.839 322.221 L 502.839 322.221 Q 507.186 316.847 510.434 309.444 L 510.434 309.444 L 510.434 309.444 Q 509.574 309.444 508.666 308.942 L 508.666 308.942 L 508.666 308.942 Q 507.759 308.441 507.759 307.342 L 507.759 307.342 L 507.759 307.342 Q 507.759 306.196 508.857 305.694 L 508.857 305.694 L 508.857 305.694 Q 509.956 305.193 512.297 304.858 L 512.297 304.858 L 512.297 304.858 Q 513.586 300.941 514.924 297.025 L 514.924 297.025 L 514.924 297.025 Q 516.261 293.108 517.885 289.286 L 517.885 289.286 L 517.885 289.286 Q 519.509 285.465 521.468 281.763 L 521.468 281.763 L 521.468 281.763 Q 523.426 278.061 526.006 274.527 Z  M 598.037 326.496 L 598.037 326.496 L 598.037 326.496 Q 597.846 326.878 597.249 328.096 L 597.249 328.096 L 597.249 328.096 Q 596.651 329.314 595.72 330.891 L 595.72 330.891 L 595.72 330.891 Q 594.789 332.467 593.547 334.187 L 593.547 334.187 L 593.547 334.187 Q 592.305 335.906 590.776 337.339 L 590.776 337.339 L 590.776 337.339 Q 589.248 338.772 587.48 339.703 L 587.48 339.703 L 587.48 339.703 Q 585.713 340.635 583.755 340.635 L 583.755 340.635 L 583.755 340.635 Q 580.984 340.635 579.097 338.868 L 579.097 338.868 L 579.097 338.868 Q 577.211 337.1 576.351 334.425 L 576.351 334.425 L 576.351 334.425 Q 574.727 337.148 572.482 338.748 L 572.482 338.748 L 572.482 338.748 Q 570.237 340.348 567.992 340.348 L 567.992 340.348 L 567.992 340.348 Q 566.225 340.348 564.792 339.703 L 564.792 339.703 L 564.792 339.703 Q 563.359 339.059 562.355 337.888 L 562.355 337.888 L 562.355 337.888 Q 561.352 336.718 560.803 335.142 L 560.803 335.142 L 560.803 335.142 Q 560.254 333.566 560.254 331.703 L 560.254 331.703 L 560.254 331.703 Q 560.254 327.977 561.52 325.135 L 561.52 325.135 L 561.52 325.135 Q 562.785 322.293 564.744 320.382 L 564.744 320.382 L 564.744 320.382 Q 566.702 318.471 569.067 317.516 L 569.067 317.516 L 569.067 317.516 Q 571.431 316.561 573.628 316.561 L 573.628 316.561 L 573.628 316.561 Q 575.109 316.561 576.351 316.967 L 576.351 316.967 L 576.351 316.967 Q 577.593 317.373 578.477 317.851 L 578.477 317.851 L 578.477 317.851 Q 579.36 318.328 579.838 318.734 L 579.838 318.734 L 579.838 318.734 Q 580.316 319.14 580.363 319.188 L 580.363 319.188 L 580.363 319.188 Q 580.889 319.809 580.889 320.478 L 580.889 320.478 L 580.889 320.478 Q 580.889 321.194 580.363 321.743 L 580.363 321.743 L 580.363 321.743 Q 579.838 322.293 579.121 322.293 L 579.121 322.293 L 579.121 322.293 Q 578.357 322.293 577.832 321.767 L 577.832 321.767 L 577.832 321.767 Q 577.736 321.672 577.402 321.409 L 577.402 321.409 L 577.402 321.409 Q 577.067 321.146 576.494 320.86 L 576.494 320.86 L 576.494 320.86 Q 575.921 320.573 575.133 320.358 L 575.133 320.358 L 575.133 320.358 Q 574.345 320.143 573.342 320.143 L 573.342 320.143 L 573.342 320.143 Q 571.861 320.143 570.189 320.812 L 570.189 320.812 L 570.189 320.812 Q 568.517 321.481 567.132 322.89 L 567.132 322.89 L 567.132 322.89 Q 565.747 324.299 564.815 326.425 L 564.815 326.425 L 564.815 326.425 Q 563.884 328.55 563.884 331.464 L 563.884 331.464 L 563.884 331.464 Q 563.884 332.371 564.075 333.303 L 564.075 333.303 L 564.075 333.303 Q 564.266 334.234 564.744 334.999 L 564.744 334.999 L 564.744 334.999 Q 565.221 335.763 566.033 336.24 L 566.033 336.24 L 566.033 336.24 Q 566.845 336.718 568.04 336.718 L 568.04 336.718 L 568.04 336.718 Q 568.899 336.718 570.022 336.145 L 570.022 336.145 L 570.022 336.145 Q 571.144 335.572 572.171 334.378 L 572.171 334.378 L 572.171 334.378 Q 573.198 333.183 574.034 331.368 L 574.034 331.368 L 574.034 331.368 Q 574.87 329.553 575.205 327.069 L 575.205 327.069 L 575.205 327.069 Q 575.3 326.401 575.826 325.947 L 575.826 325.947 L 575.826 325.947 Q 576.351 325.493 577.067 325.493 L 577.067 325.493 L 577.067 325.493 Q 577.736 325.493 578.238 326.019 L 578.238 326.019 L 578.238 326.019 Q 578.739 326.544 578.787 327.213 L 578.787 327.213 L 578.787 327.213 Q 578.835 328.12 578.978 329.768 L 578.978 329.768 L 578.978 329.768 Q 579.121 331.416 579.623 333.04 L 579.623 333.04 L 579.623 333.04 Q 580.124 334.664 581.128 335.858 L 581.128 335.858 L 581.128 335.858 Q 582.131 337.052 583.898 337.052 L 583.898 337.052 L 583.898 337.052 Q 585.044 337.052 586.167 336.432 L 586.167 336.432 L 586.167 336.432 Q 587.289 335.811 588.364 334.784 L 588.364 334.784 L 588.364 334.784 Q 589.439 333.757 590.418 332.443 L 590.418 332.443 L 590.418 332.443 Q 591.397 331.129 592.209 329.792 L 592.209 329.792 L 592.209 329.792 Q 593.021 328.455 593.642 327.213 L 593.642 327.213 L 593.642 327.213 Q 594.263 325.971 594.693 325.063 L 594.693 325.063 L 594.693 325.063 Q 594.932 324.538 595.386 324.251 L 595.386 324.251 L 595.386 324.251 Q 595.839 323.965 596.365 323.965 L 596.365 323.965 L 596.365 323.965 Q 597.177 323.965 597.678 324.562 L 597.678 324.562 L 597.678 324.562 Q 598.18 325.159 598.18 325.827 L 598.18 325.827 L 598.18 325.827 Q 598.18 326.162 598.037 326.496 Z  M 621.92 326.592 L 621.92 326.592 L 621.92 326.592 Q 621.394 327.69 620.606 329.195 L 620.606 329.195 L 620.606 329.195 Q 619.818 330.7 618.815 332.324 L 618.815 332.324 L 618.815 332.324 Q 617.812 333.948 616.57 335.548 L 616.57 335.548 L 616.57 335.548 Q 615.328 337.148 613.871 338.414 L 613.871 338.414 L 613.871 338.414 Q 612.414 339.68 610.766 340.468 L 610.766 340.468 L 610.766 340.468 Q 609.118 341.256 607.256 341.256 L 607.256 341.256 L 607.256 341.256 Q 604.39 341.256 602.336 339.489 L 602.336 339.489 L 602.336 339.489 Q 600.282 337.721 598.849 334.855 L 598.849 334.855 L 598.849 334.855 Q 597.416 331.989 596.532 328.335 L 596.532 328.335 L 596.532 328.335 Q 595.648 324.681 595.171 320.884 L 595.171 320.884 L 595.171 320.884 Q 594.693 317.086 594.526 313.504 L 594.526 313.504 L 594.526 313.504 Q 594.359 309.921 594.359 307.151 L 594.359 307.151 L 594.359 307.151 Q 594.359 303.139 594.621 298.84 L 594.621 298.84 L 594.621 298.84 Q 594.884 294.541 595.457 290.433 L 595.457 290.433 L 595.457 290.433 Q 596.031 286.325 596.914 282.647 L 596.914 282.647 L 596.914 282.647 Q 597.798 278.969 599.016 276.199 L 599.016 276.199 L 599.016 276.199 Q 600.234 273.428 601.81 271.804 L 601.81 271.804 L 601.81 271.804 Q 603.386 270.18 605.393 270.18 L 605.393 270.18 L 605.393 270.18 Q 606.969 270.18 608.235 270.92 L 608.235 270.92 L 608.235 270.92 Q 609.501 271.661 610.36 273.333 L 610.36 273.333 L 610.36 273.333 Q 611.22 275.004 611.698 277.679 L 611.698 277.679 L 611.698 277.679 Q 612.175 280.354 612.175 284.223 L 612.175 284.223 L 612.175 284.223 Q 612.175 289 611.172 294.087 L 611.172 294.087 L 611.172 294.087 Q 610.169 299.174 608.45 304.333 L 608.45 304.333 L 608.45 304.333 Q 606.73 309.491 604.39 314.626 L 604.39 314.626 L 604.39 314.626 Q 602.049 319.761 599.374 324.633 L 599.374 324.633 L 599.374 324.633 Q 600.568 330.7 602.574 334.163 L 602.574 334.163 L 602.574 334.163 Q 604.581 337.626 607.399 337.626 L 607.399 337.626 L 607.399 337.626 Q 609.309 337.626 611.077 336.121 L 611.077 336.121 L 611.077 336.121 Q 612.844 334.616 614.325 332.562 L 614.325 332.562 L 614.325 332.562 Q 615.806 330.509 616.928 328.383 L 616.928 328.383 L 616.928 328.383 Q 618.051 326.257 618.672 324.968 L 618.672 324.968 L 618.672 324.968 Q 618.91 324.49 619.34 324.227 L 619.34 324.227 L 619.34 324.227 Q 619.77 323.965 620.296 323.965 L 620.296 323.965 L 620.296 323.965 Q 621.108 323.965 621.609 324.538 L 621.609 324.538 L 621.609 324.538 Q 622.111 325.111 622.111 325.827 L 622.111 325.827 L 622.111 325.827 Q 622.111 326.114 621.92 326.592 Z  M 597.989 307.39 L 597.989 307.39 L 597.989 307.39 Q 597.989 310.447 598.132 313.265 L 598.132 313.265 L 598.132 313.265 Q 598.276 316.083 598.514 318.663 L 598.514 318.663 L 598.514 318.663 Q 600.521 314.794 602.336 310.423 L 602.336 310.423 L 602.336 310.423 Q 604.151 306.052 605.536 301.586 L 605.536 301.586 L 605.536 301.586 Q 606.921 297.12 607.757 292.702 L 607.757 292.702 L 607.757 292.702 Q 608.593 288.283 608.593 284.271 L 608.593 284.271 L 608.593 284.271 Q 608.593 278.635 607.685 276.199 L 607.685 276.199 L 607.685 276.199 Q 606.778 273.763 605.249 273.763 L 605.249 273.763 L 605.249 273.763 Q 604.246 273.763 603.315 275.148 L 603.315 275.148 L 603.315 275.148 Q 602.383 276.533 601.571 278.921 L 601.571 278.921 L 601.571 278.921 Q 600.759 281.31 600.091 284.558 L 600.091 284.558 L 600.091 284.558 Q 599.422 287.806 598.968 291.531 L 598.968 291.531 L 598.968 291.531 Q 598.514 295.257 598.252 299.317 L 598.252 299.317 L 598.252 299.317 Q 597.989 303.377 597.989 307.39 Z  M 645.85 326.592 L 645.85 326.592 L 645.85 326.592 Q 645.325 327.69 644.537 329.195 L 644.537 329.195 L 644.537 329.195 Q 643.749 330.7 642.746 332.324 L 642.746 332.324 L 642.746 332.324 Q 641.743 333.948 640.501 335.548 L 640.501 335.548 L 640.501 335.548 Q 639.259 337.148 637.802 338.414 L 637.802 338.414 L 637.802 338.414 Q 636.345 339.68 634.697 340.468 L 634.697 340.468 L 634.697 340.468 Q 633.049 341.256 631.186 341.256 L 631.186 341.256 L 631.186 341.256 Q 628.32 341.256 626.266 339.489 L 626.266 339.489 L 626.266 339.489 Q 624.212 337.721 622.779 334.855 L 622.779 334.855 L 622.779 334.855 Q 621.347 331.989 620.463 328.335 L 620.463 328.335 L 620.463 328.335 Q 619.579 324.681 619.102 320.884 L 619.102 320.884 L 619.102 320.884 Q 618.624 317.086 618.457 313.504 L 618.457 313.504 L 618.457 313.504 Q 618.29 309.921 618.29 307.151 L 618.29 307.151 L 618.29 307.151 Q 618.29 303.139 618.552 298.84 L 618.552 298.84 L 618.552 298.84 Q 618.815 294.541 619.388 290.433 L 619.388 290.433 L 619.388 290.433 Q 619.961 286.325 620.845 282.647 L 620.845 282.647 L 620.845 282.647 Q 621.729 278.969 622.947 276.199 L 622.947 276.199 L 622.947 276.199 Q 624.165 273.428 625.741 271.804 L 625.741 271.804 L 625.741 271.804 Q 627.317 270.18 629.323 270.18 L 629.323 270.18 L 629.323 270.18 Q 630.9 270.18 632.165 270.92 L 632.165 270.92 L 632.165 270.92 Q 633.431 271.661 634.291 273.333 L 634.291 273.333 L 634.291 273.333 Q 635.151 275.004 635.629 277.679 L 635.629 277.679 L 635.629 277.679 Q 636.106 280.354 636.106 284.223 L 636.106 284.223 L 636.106 284.223 Q 636.106 289 635.103 294.087 L 635.103 294.087 L 635.103 294.087 Q 634.1 299.174 632.38 304.333 L 632.38 304.333 L 632.38 304.333 Q 630.661 309.491 628.32 314.626 L 628.32 314.626 L 628.32 314.626 Q 625.98 319.761 623.305 324.633 L 623.305 324.633 L 623.305 324.633 Q 624.499 330.7 626.505 334.163 L 626.505 334.163 L 626.505 334.163 Q 628.511 337.626 631.33 337.626 L 631.33 337.626 L 631.33 337.626 Q 633.24 337.626 635.008 336.121 L 635.008 336.121 L 635.008 336.121 Q 636.775 334.616 638.256 332.562 L 638.256 332.562 L 638.256 332.562 Q 639.736 330.509 640.859 328.383 L 640.859 328.383 L 640.859 328.383 Q 641.981 326.257 642.602 324.968 L 642.602 324.968 L 642.602 324.968 Q 642.841 324.49 643.271 324.227 L 643.271 324.227 L 643.271 324.227 Q 643.701 323.965 644.226 323.965 L 644.226 323.965 L 644.226 323.965 Q 645.038 323.965 645.54 324.538 L 645.54 324.538 L 645.54 324.538 Q 646.042 325.111 646.042 325.827 L 646.042 325.827 L 646.042 325.827 Q 646.042 326.114 645.85 326.592 Z  M 621.92 307.39 L 621.92 307.39 L 621.92 307.39 Q 621.92 310.447 622.063 313.265 L 622.063 313.265 L 622.063 313.265 Q 622.206 316.083 622.445 318.663 L 622.445 318.663 L 622.445 318.663 Q 624.451 314.794 626.266 310.423 L 626.266 310.423 L 626.266 310.423 Q 628.081 306.052 629.467 301.586 L 629.467 301.586 L 629.467 301.586 Q 630.852 297.12 631.688 292.702 L 631.688 292.702 L 631.688 292.702 Q 632.524 288.283 632.524 284.271 L 632.524 284.271 L 632.524 284.271 Q 632.524 278.635 631.616 276.199 L 631.616 276.199 L 631.616 276.199 Q 630.709 273.763 629.18 273.763 L 629.18 273.763 L 629.18 273.763 Q 628.177 273.763 627.246 275.148 L 627.246 275.148 L 627.246 275.148 Q 626.314 276.533 625.502 278.921 L 625.502 278.921 L 625.502 278.921 Q 624.69 281.31 624.021 284.558 L 624.021 284.558 L 624.021 284.558 Q 623.353 287.806 622.899 291.531 L 622.899 291.531 L 622.899 291.531 Q 622.445 295.257 622.182 299.317 L 622.182 299.317 L 622.182 299.317 Q 621.92 303.377 621.92 307.39 Z  M 648.334 334.569 L 648.334 334.569 L 648.334 334.569 Q 649.337 335.954 650.914 336.79 L 650.914 336.79 L 650.914 336.79 Q 652.49 337.626 654.783 337.626 L 654.783 337.626 L 654.783 337.626 Q 657.123 337.626 659.034 336.503 L 659.034 336.503 L 659.034 336.503 Q 660.945 335.381 662.521 333.566 L 662.521 333.566 L 662.521 333.566 Q 664.097 331.75 665.339 329.505 L 665.339 329.505 L 665.339 329.505 Q 666.581 327.26 667.584 325.015 L 667.584 325.015 L 667.584 325.015 Q 667.823 324.49 668.253 324.227 L 668.253 324.227 L 668.253 324.227 Q 668.683 323.965 669.208 323.965 L 669.208 323.965 L 669.208 323.965 Q 670.02 323.965 670.522 324.538 L 670.522 324.538 L 670.522 324.538 Q 671.023 325.111 671.023 325.78 L 671.023 325.78 L 671.023 325.78 Q 671.023 326.019 670.975 326.186 L 670.975 326.186 L 670.975 326.186 Q 670.928 326.353 670.832 326.544 L 670.832 326.544 L 670.832 326.544 Q 667.536 333.804 663.643 337.482 L 663.643 337.482 L 663.643 337.482 Q 659.75 341.16 654.83 341.256 L 654.83 341.256 L 654.83 341.256 Q 651.678 341.256 649.385 340.038 L 649.385 340.038 L 649.385 340.038 Q 647.092 338.82 645.612 336.885 L 645.612 336.885 L 645.612 336.885 Q 644.131 334.951 643.414 332.515 L 643.414 332.515 L 643.414 332.515 Q 642.698 330.079 642.698 327.643 L 642.698 327.643 L 642.698 327.643 Q 642.698 325.207 643.295 323.153 L 643.295 323.153 L 643.295 323.153 Q 643.892 321.099 645.015 319.57 L 645.015 319.57 L 645.015 319.57 Q 646.137 318.042 647.689 317.182 L 647.689 317.182 L 647.689 317.182 Q 649.242 316.322 651.105 316.322 L 651.105 316.322 L 651.105 316.322 Q 652.203 316.322 653.278 316.776 L 653.278 316.776 L 653.278 316.776 Q 654.353 317.23 655.213 318.065 L 655.213 318.065 L 655.213 318.065 Q 656.072 318.901 656.598 320.096 L 656.598 320.096 L 656.598 320.096 Q 657.123 321.29 657.123 322.818 L 657.123 322.818 L 657.123 322.818 Q 657.123 324.777 656.455 326.496 L 656.455 326.496 L 656.455 326.496 Q 655.786 328.216 654.616 329.696 L 654.616 329.696 L 654.616 329.696 Q 653.445 331.177 651.821 332.419 L 651.821 332.419 L 651.821 332.419 Q 650.197 333.661 648.334 334.569 Z  M 646.901 331.464 L 646.901 331.464 L 646.901 331.464 Q 648.382 330.843 649.6 329.888 L 649.6 329.888 L 649.6 329.888 Q 650.818 328.932 651.678 327.786 L 651.678 327.786 L 651.678 327.786 Q 652.538 326.639 653.015 325.374 L 653.015 325.374 L 653.015 325.374 Q 653.493 324.108 653.493 322.818 L 653.493 322.818 L 653.493 322.818 Q 653.493 321.385 652.777 320.645 L 652.777 320.645 L 652.777 320.645 Q 652.06 319.904 651.105 319.904 L 651.105 319.904 L 651.105 319.904 Q 649.815 319.904 648.907 320.621 L 648.907 320.621 L 648.907 320.621 Q 648 321.337 647.427 322.484 L 647.427 322.484 L 647.427 322.484 Q 646.854 323.63 646.591 325.039 L 646.591 325.039 L 646.591 325.039 Q 646.328 326.448 646.328 327.834 L 646.328 327.834 L 646.328 327.834 Q 646.328 328.693 646.495 329.649 L 646.495 329.649 L 646.495 329.649 Q 646.662 330.604 646.901 331.464 Z  M 706.274 292.009 L 706.274 292.009 L 706.274 292.009 Q 706.274 292.773 705.749 293.227 L 705.749 293.227 L 705.749 293.227 Q 705.224 293.681 704.459 293.681 L 704.459 293.681 L 680.242 293.681 L 680.242 294.206 L 680.242 294.206 Q 680.242 297.12 679.812 300.416 L 679.812 300.416 L 679.812 300.416 Q 679.382 303.712 678.642 306.984 L 678.642 306.984 L 678.642 306.984 Q 677.901 310.256 676.97 313.361 L 676.97 313.361 L 676.97 313.361 Q 676.039 316.465 675.059 319.092 L 675.059 319.092 L 675.059 319.092 Q 674.08 321.72 673.125 323.654 L 673.125 323.654 L 673.125 323.654 Q 672.17 325.589 671.405 326.544 L 671.405 326.544 L 671.405 326.544 Q 672.026 328.741 672.886 330.628 L 672.886 330.628 L 672.886 330.628 Q 673.746 332.515 674.821 333.924 L 674.821 333.924 L 674.821 333.924 Q 675.895 335.333 677.137 336.145 L 677.137 336.145 L 677.137 336.145 Q 678.379 336.957 679.812 336.957 L 679.812 336.957 L 679.812 336.957 Q 681.484 336.957 683.132 335.548 L 683.132 335.548 L 683.132 335.548 Q 684.78 334.139 686.189 332.204 L 686.189 332.204 L 686.189 332.204 Q 687.598 330.27 688.673 328.287 L 688.673 328.287 L 688.673 328.287 Q 689.747 326.305 690.225 325.111 L 690.225 325.111 L 690.225 325.111 Q 690.703 323.965 691.897 323.965 L 691.897 323.965 L 691.897 323.965 Q 692.709 323.965 693.21 324.538 L 693.21 324.538 L 693.21 324.538 Q 693.712 325.111 693.712 325.78 L 693.712 325.78 L 693.712 325.78 Q 693.712 326.114 693.569 326.448 L 693.569 326.448 L 693.569 326.448 Q 693.425 326.783 692.876 327.977 L 692.876 327.977 L 692.876 327.977 Q 692.327 329.171 691.443 330.747 L 691.443 330.747 L 691.443 330.747 Q 690.559 332.324 689.389 334.067 L 689.389 334.067 L 689.389 334.067 Q 688.219 335.811 686.762 337.244 L 686.762 337.244 L 686.762 337.244 Q 685.305 338.677 683.633 339.632 L 683.633 339.632 L 683.633 339.632 Q 681.962 340.587 680.099 340.587 L 680.099 340.587 L 680.099 340.587 Q 676.803 340.587 674.176 338.438 L 674.176 338.438 L 674.176 338.438 Q 671.549 336.288 669.71 332.419 L 669.71 332.419 L 669.71 332.419 Q 667.871 328.55 666.915 323.248 L 666.915 323.248 L 666.915 323.248 Q 665.96 317.946 665.96 311.641 L 665.96 311.641 L 665.96 311.641 Q 665.96 310.065 666.008 307.939 L 666.008 307.939 L 666.008 307.939 Q 666.055 305.814 666.199 303.449 L 666.199 303.449 L 666.199 303.449 Q 666.342 301.085 666.629 298.577 L 666.629 298.577 L 666.629 298.577 Q 666.915 296.069 667.393 293.681 L 667.393 293.681 L 650.245 293.681 L 650.245 293.681 Q 649.481 293.681 648.955 293.227 L 648.955 293.227 L 648.955 293.227 Q 648.43 292.773 648.43 292.009 L 648.43 292.009 L 648.43 292.009 Q 648.43 291.245 648.955 290.791 L 648.955 290.791 L 648.955 290.791 Q 649.481 290.337 650.245 290.337 L 650.245 290.337 L 668.205 290.337 L 668.205 290.337 Q 668.683 288.618 669.327 287.185 L 669.327 287.185 L 669.327 287.185 Q 669.972 285.752 670.808 284.701 L 670.808 284.701 L 670.808 284.701 Q 671.644 283.65 672.671 283.053 L 672.671 283.053 L 672.671 283.053 Q 673.698 282.456 674.94 282.456 L 674.94 282.456 L 674.94 282.456 Q 676.134 282.456 677.018 283.053 L 677.018 283.053 L 677.018 283.053 Q 677.901 283.65 678.522 284.701 L 678.522 284.701 L 678.522 284.701 Q 679.143 285.752 679.502 287.185 L 679.502 287.185 L 679.502 287.185 Q 679.86 288.618 680.051 290.337 L 680.051 290.337 L 704.459 290.337 L 704.459 290.337 Q 705.224 290.337 705.749 290.791 L 705.749 290.791 L 705.749 290.791 Q 706.274 291.245 706.274 292.009 Z  M 670.307 321.767 L 670.307 321.767 L 670.307 321.767 Q 671.74 318.615 672.91 314.961 L 672.91 314.961 L 672.91 314.961 Q 674.08 311.307 674.916 307.581 L 674.916 307.581 L 674.916 307.581 Q 675.752 303.855 676.206 300.273 L 676.206 300.273 L 676.206 300.273 Q 676.66 296.69 676.66 293.681 L 676.66 293.681 L 671.023 293.681 L 671.023 293.681 Q 670.354 296.642 669.948 301.013 L 669.948 301.013 L 669.948 301.013 Q 669.542 305.384 669.542 311.641 L 669.542 311.641 L 669.542 311.641 Q 669.542 315.128 669.733 317.492 L 669.733 317.492 L 669.733 317.492 Q 669.925 319.857 670.307 321.767 Z  M 674.749 286.038 L 674.749 286.038 L 674.749 286.038 Q 674.319 286.038 673.507 286.97 L 673.507 286.97 L 673.507 286.97 Q 672.695 287.901 671.883 290.337 L 671.883 290.337 L 676.469 290.337 L 676.469 290.337 Q 676.23 288.331 675.776 287.185 L 675.776 287.185 L 675.776 287.185 Q 675.322 286.038 674.749 286.038 Z  M 671.071 325.254 L 671.071 325.207 L 671.071 325.254 Z " fill="rgb(255,255,255)" mask="url(#_mask_vIYJgTbqFmnAwAvXcl0edlIzJ4BXram6)" vector-effect="non-scaling-stroke" stroke-width="4" stroke="rgb(0,0,0)" stroke-linejoin="miter" stroke-linecap="square" stroke-miterlimit="3"/></g></svg>